<svg width="16" height="11" viewBox="0 0 16 11" fill="none" xmlns="http://www.w3.org/2000/svg">
<path d="M14.0833 4.58406H3.25L6.81417 1.56823C6.91571 1.48301 6.9963 1.38163 7.0513 1.26992C7.1063 1.15822 7.13461 1.0384 7.13461 0.917393C7.13461 0.796382 7.1063 0.676569 7.0513 0.564864C6.9963 0.45316 6.91571 0.351776 6.81417 0.26656C6.61119 0.0958297 6.33662 0 6.05042 0C5.76422 0 5.48964 0.0958297 5.28667 0.26656L0.639167 4.20823C0.23228 4.55046 0.00241886 5.01528 0 5.50073C0.00527214 5.98299 0.234915 6.44407 0.639167 6.78406L5.28667 10.7257C5.38768 10.8106 5.50745 10.8778 5.63915 10.9235C5.77085 10.9692 5.9119 10.9925 6.05425 10.9921C6.19659 10.9916 6.33744 10.9675 6.46876 10.921C6.60008 10.8745 6.71929 10.8066 6.81958 10.7211C6.91988 10.6357 6.9993 10.5343 7.05331 10.4229C7.10732 10.3114 7.13486 10.1921 7.13435 10.0717C7.13385 9.95121 7.10531 9.83202 7.05038 9.72091C6.99544 9.6098 6.91518 9.50893 6.81417 9.42406L3.25 6.41739H14.0833C14.3707 6.41739 14.6462 6.32082 14.8494 6.14891C15.0525 5.977 15.1667 5.74384 15.1667 5.50073C15.1667 5.25761 15.0525 5.02445 14.8494 4.85255C14.6462 4.68064 14.3707 4.58406 14.0833 4.58406Z" fill="black"/>
</svg>
