<svg width="27" height="27" viewBox="0 0 27 27" fill="none" xmlns="http://www.w3.org/2000/svg">
<path d="M24.6667 0H3.33333C1.496 0 0 1.26225 0 2.8125V24.1875C0 25.7378 1.496 27 3.33333 27H26.6667V1.6875C26.6667 0.757125 25.7693 0 24.6667 0ZM25.3333 1.6875V21.375H6.66667V1.125H13.3333V13.7329L17.3333 10.3579L21.3333 13.7329V1.125H24.6667C25.0347 1.125 25.3333 1.377 25.3333 1.6875ZM14.6667 1.125H20V11.0171L17.3333 8.76713L14.6667 11.0171V1.125ZM3.33333 1.125H5.33333V21.375H3.33333C2.584 21.375 1.89067 21.5854 1.33333 21.9386V2.8125C1.33333 1.88212 2.23067 1.125 3.33333 1.125ZM3.33333 25.875C2.23067 25.875 1.33333 25.1179 1.33333 24.1875C1.33333 23.2571 2.23067 22.5 3.33333 22.5H25.3333V25.875H3.33333Z" fill="black"/>
</svg>
