<svg width="28" height="27" viewBox="0 0 28 27" fill="none" xmlns="http://www.w3.org/2000/svg">
<path d="M25.3334 0H4.00002C2.16269 0 0.666687 1.26225 0.666687 2.8125V24.1875C0.666687 25.7377 2.16269 27 4.00002 27H27.3334V1.6875C27.3334 0.757125 26.436 0 25.3334 0ZM26 1.6875V21.375H7.33335V1.125H14V13.7329L18 10.3579L22 13.7329V1.125H25.3334C25.7014 1.125 26 1.377 26 1.6875ZM15.3334 1.125H20.6667V11.0171L18 8.76713L15.3334 11.0171V1.125ZM4.00002 1.125H6.00002V21.375H4.00002C3.25069 21.375 2.55735 21.5854 2.00002 21.9386V2.8125C2.00002 1.88213 2.89735 1.125 4.00002 1.125ZM4.00002 25.875C2.89735 25.875 2.00002 25.1179 2.00002 24.1875C2.00002 23.2571 2.89735 22.5 4.00002 22.5H26V25.875H4.00002Z" fill="black"/>
</svg>
