<svg width="25" height="22" viewBox="0 0 25 22" fill="none" xmlns="http://www.w3.org/2000/svg">
<path d="M23.2181 0.394674L8.82454 18.9261C8.72777 19.0512 8.61276 19.1505 8.48612 19.2182C8.35949 19.2859 8.22371 19.3208 8.08658 19.3208C7.94945 19.3208 7.81367 19.2859 7.68704 19.2182C7.5604 19.1505 7.4454 19.0512 7.34862 18.9261L1.78244 11.7525C1.68567 11.6274 1.57066 11.5282 1.44402 11.4604C1.31739 11.3927 1.18161 11.3579 1.04448 11.3579C0.907354 11.3579 0.771576 11.3927 0.644939 11.4604C0.518301 11.5282 0.403297 11.6274 0.306525 11.7525C0.20937 11.8771 0.13228 12.0252 0.0796788 12.1883C0.0270775 12.3513 0 12.5261 0 12.7027C0 12.8793 0.0270775 13.0541 0.0796788 13.2171C0.13228 13.3802 0.20937 13.5283 0.306525 13.6529L5.87479 20.8211C6.46219 21.576 7.25821 22 8.08814 22C8.91807 22 9.7141 21.576 10.3015 20.8211L24.694 2.29368C24.791 2.16911 24.868 2.02111 24.9205 1.85818C24.973 1.69525 25 1.52058 25 1.34418C25 1.16778 24.973 0.993107 24.9205 0.830176C24.868 0.667244 24.791 0.519252 24.694 0.394674C24.5972 0.26958 24.4822 0.170321 24.3556 0.102593C24.2289 0.0348646 24.0932 0 23.956 0C23.8189 0 23.6831 0.0348646 23.5565 0.102593C23.4299 0.170321 23.3149 0.26958 23.2181 0.394674Z" fill="#13AA18"/>
</svg>
