<svg width="161" height="158" viewBox="0 0 161 158" fill="none" xmlns="http://www.w3.org/2000/svg">
<path d="M109.332 54.5627L118.751 63.9439L79.8895 101.515C77.2934 104.063 73.8789 105.333 70.4509 105.333C67.023 105.333 63.5749 104.05 60.9519 101.482L42.2893 83.7334L51.634 74.2732L70.3704 92.0943L109.332 54.5627ZM161 79C161 122.562 124.889 158 80.5 158C36.111 158 0 122.562 0 79C0 35.4381 36.111 0 80.5 0C124.889 0 161 35.4381 161 79ZM147.583 79C147.583 42.6995 117.49 13.1667 80.5 13.1667C43.5103 13.1667 13.4167 42.6995 13.4167 79C13.4167 115.3 43.5103 144.833 80.5 144.833C117.49 144.833 147.583 115.3 147.583 79Z" fill="#13AA18"/>
</svg>
