<svg width="38" height="35" viewBox="0 0 38 35" fill="none" xmlns="http://www.w3.org/2000/svg">
<path d="M25.5219 11.444C25.2157 11.1597 24.8004 11 24.3674 11C23.9344 11 23.5191 11.1597 23.2129 11.444L18.9901 15.3651L14.7674 11.444C14.4594 11.1677 14.0469 11.0149 13.6188 11.0184C13.1906 11.0218 12.781 11.1813 12.4783 11.4624C12.1755 11.7436 12.0038 12.1239 12.0001 12.5214C11.9963 12.919 12.1609 13.302 12.4584 13.588L16.6812 17.5092L12.4584 21.4303C12.1609 21.7163 11.9963 22.0993 12.0001 22.4969C12.0038 22.8944 12.1755 23.2748 12.4783 23.5559C12.781 23.837 13.1906 23.9965 13.6188 23.9999C14.0469 24.0034 14.4594 23.8506 14.7674 23.5744L18.9901 19.6532L23.2129 23.5744C23.5209 23.8506 23.9334 24.0034 24.3615 23.9999C24.7897 23.9965 25.1992 23.837 25.502 23.5559C25.8048 23.2748 25.9765 22.8944 25.9802 22.4969C25.9839 22.0993 25.8194 21.7163 25.5219 21.4303L21.2991 17.5092L25.5219 13.588C25.828 13.3037 26 12.918 26 12.516C26 12.1139 25.828 11.7283 25.5219 11.444Z" fill="black"/>
<path d="M19 0C15.2422 0 11.5687 1.02636 8.44417 2.94928C5.31964 4.87221 2.88436 7.60533 1.4463 10.803C0.00823243 14.0007 -0.368031 17.5194 0.365088 20.9141C1.09821 24.3087 2.90778 27.4269 5.56498 29.8744C8.22218 32.3218 11.6077 33.9885 15.2933 34.6637C18.9789 35.339 22.7992 34.9924 26.271 33.6679C29.7428 32.3434 32.7102 30.1003 34.7979 27.2225C36.8857 24.3446 38 20.9612 38 17.5C37.9946 12.8602 35.991 8.41197 32.429 5.13117C28.867 1.85037 24.0374 0.00501824 19 0ZM19 32.0833C15.8685 32.0833 12.8073 31.228 10.2035 29.6256C7.5997 28.0232 5.5703 25.7456 4.37192 23.0808C3.17353 20.416 2.85998 17.4838 3.47091 14.6549C4.08184 11.826 5.58982 9.22754 7.80415 7.18803C10.0185 5.14851 12.8397 3.75958 15.9111 3.19688C18.9824 2.63418 22.166 2.92298 25.0592 4.02676C27.9523 5.13053 30.4251 6.99972 32.1649 9.39793C33.9047 11.7961 34.8333 14.6157 34.8333 17.5C34.8287 21.3664 33.1591 25.0733 30.1908 27.8073C27.2224 30.5413 23.1979 32.0791 19 32.0833Z" fill="black"/>
</svg>
