<svg width="30" height="32" viewBox="0 0 30 32" fill="none" xmlns="http://www.w3.org/2000/svg">
<path fill-rule="evenodd" clip-rule="evenodd" d="M29 23.2185V4.70308C29 3.72096 28.6197 2.77907 27.9428 2.08461C27.2659 1.39014 26.3478 1 25.3905 1H10.9524C9.99511 1 9.07702 1.39014 8.4001 2.08461C7.72318 2.77907 7.3429 3.72096 7.3429 4.70308V23.2185C7.3429 24.2006 7.72318 25.1425 8.4001 25.8369C9.07702 26.5314 9.99511 26.9215 10.9524 26.9215H25.3905C26.3478 26.9215 27.2659 26.5314 27.9428 25.8369C28.6197 25.1425 29 24.2006 29 23.2185Z" stroke="black" stroke-linecap="round" stroke-linejoin="round"/>
<path d="M6.99094 5.50854L3.3742 6.86017C2.47492 7.19621 1.74255 7.88489 1.33811 8.77479C0.933679 9.6647 0.890298 10.683 1.21751 11.6057L7.38979 29.0046C7.55197 29.4616 7.80032 29.8814 8.12065 30.2399C8.44099 30.5985 8.82704 30.8888 9.25675 31.0943C9.68646 31.2997 10.1514 31.4163 10.6251 31.4374C11.0987 31.4585 11.5718 31.3837 12.0172 31.2172L22.0661 27.1475M12.7572 10.2577H21.781M12.7572 13.9608H23.5857M12.7572 17.6639H18.1714" stroke="black" stroke-linecap="round" stroke-linejoin="round"/>
</svg>
