<svg width="38" height="38" viewBox="0 0 38 38" fill="none" xmlns="http://www.w3.org/2000/svg">
<path d="M19 0C15.2422 0 11.5687 1.11433 8.44417 3.20208C5.31964 5.28982 2.88436 8.25722 1.4463 11.729C0.00823243 15.2008 -0.368031 19.0211 0.365088 22.7067C1.09821 26.3924 2.90778 29.7778 5.56498 32.435C8.22218 35.0922 11.6077 36.9018 15.2933 37.6349C18.9789 38.368 22.7992 37.9918 26.271 36.5537C29.7428 35.1156 32.7102 32.6804 34.7979 29.5558C36.8857 26.4313 38 22.7578 38 19C37.9946 13.9626 35.991 9.133 32.429 5.57099C28.867 2.00898 24.0374 0.00544838 19 0ZM19 34.8333C15.8685 34.8333 12.8073 33.9047 10.2035 32.1649C7.5997 30.4251 5.5703 27.9523 4.37192 25.0592C3.17353 22.166 2.85998 18.9824 3.47091 15.9111C4.08184 12.8397 5.58982 10.0185 7.80415 7.80414C10.0185 5.58981 12.8397 4.08183 15.9111 3.4709C18.9824 2.85997 22.166 3.17352 25.0592 4.37191C27.9523 5.5703 30.4252 7.59969 32.1649 10.2035C33.9047 12.8073 34.8333 15.8685 34.8333 19C34.8287 23.1978 33.1591 27.2224 30.1908 30.1908C27.2224 33.1591 23.1979 34.8287 19 34.8333Z" fill="black"/>
<path d="M19 7.9165C18.58 7.9165 18.1773 8.08332 17.8804 8.38025C17.5834 8.67718 17.4166 9.07991 17.4166 9.49984V22.1665C17.4166 22.5864 17.5834 22.9892 17.8804 23.2861C18.1773 23.583 18.58 23.7498 19 23.7498C19.4199 23.7498 19.8226 23.583 20.1195 23.2861C20.4165 22.9892 20.5833 22.5864 20.5833 22.1665V9.49984C20.5833 9.07991 20.4165 8.67718 20.1195 8.38025C19.8226 8.08332 19.4199 7.9165 19 7.9165Z" fill="black"/>
<path d="M20.5833 28.4998C20.5833 27.6254 19.8744 26.9165 19 26.9165C18.1255 26.9165 17.4166 27.6254 17.4166 28.4998C17.4166 29.3743 18.1255 30.0832 19 30.0832C19.8744 30.0832 20.5833 29.3743 20.5833 28.4998Z" fill="black"/>
</svg>
