<svg width="123" height="132" viewBox="0 0 123 132" fill="none" xmlns="http://www.w3.org/2000/svg">
<path d="M41 0C36.6504 0 32.479 1.63613 29.4034 4.54846C26.3279 7.46079 24.6 11.4108 24.6 15.5294V55.9602C27.2806 55.2426 30.0257 54.7618 32.8 54.5238V15.5294C32.8 13.4701 33.6639 11.4951 35.2017 10.0389C36.7395 8.58277 38.8252 7.76471 41 7.76471H73.8V34.9412C73.8 38.0302 75.0959 40.9926 77.4026 43.1769C79.7093 45.3611 82.8378 46.5882 86.1 46.5882H114.8V108.706C114.8 110.765 113.936 112.74 112.398 114.196C110.86 115.653 108.775 116.471 106.6 116.471H77.08C75.5877 119.237 73.7813 121.84 71.6926 124.235H106.6C110.95 124.235 115.121 122.599 118.197 119.687C121.272 116.774 123 112.825 123 108.706V42.0381C122.997 38.9502 121.699 35.9897 119.392 33.8075L87.2972 3.4087C84.9914 1.22668 81.8651 0.000659079 78.6052 0H41ZM113.103 38.8235H86.1C85.0126 38.8235 83.9698 38.4145 83.2009 37.6864C82.432 36.9583 82 35.9708 82 34.9412V9.372L113.103 38.8235ZM36.9 132C46.6865 132 56.0721 128.319 62.9922 121.766C69.9123 115.213 73.8 106.326 73.8 97.0588C73.8 87.7918 69.9123 78.9044 62.9922 72.3517C56.0721 65.7989 46.6865 62.1176 36.9 62.1176C27.1135 62.1176 17.7279 65.7989 10.8078 72.3517C3.88767 78.9044 0 87.7918 0 97.0588C0 106.326 3.88767 115.213 10.8078 121.766C17.7279 128.319 27.1135 132 36.9 132ZM17.5972 99.8075C16.8273 99.0785 16.3948 98.0898 16.3948 97.0588C16.3948 96.0279 16.8273 95.0391 17.5972 94.3101C18.3671 93.5811 19.4112 93.1716 20.5 93.1716C21.5888 93.1716 22.6329 93.5811 23.4028 94.3101L32.8 103.216V81.5294C32.8 80.4997 33.232 79.5123 34.0009 78.7842C34.7698 78.0561 35.8126 77.6471 36.9 77.6471C37.9874 77.6471 39.0302 78.0561 39.7991 78.7842C40.568 79.5123 41 80.4997 41 81.5294V103.216L50.3972 94.3101C51.1671 93.5811 52.2112 93.1716 53.3 93.1716C54.3888 93.1716 55.4329 93.5811 56.2028 94.3101C56.9727 95.0391 57.4052 96.0279 57.4052 97.0588C57.4052 98.0898 56.9727 99.0785 56.2028 99.8075L39.8028 115.337C39.0384 116.059 38.0042 116.466 36.9246 116.471H36.8754C35.8067 116.464 34.7827 116.063 34.0218 115.352L33.9972 115.329L17.5972 99.8075Z" fill="black"/>
</svg>
