<svg width="85" height="107" viewBox="0 0 85 107" fill="none" xmlns="http://www.w3.org/2000/svg">
<path d="M56.6667 45.0526C52.158 45.0526 47.834 43.2727 44.6458 40.1043C41.4577 36.9359 39.6667 32.6387 39.6667 28.1579V5.63158H17C13.9942 5.63158 11.1115 6.81823 8.98612 8.93048C6.86071 11.0427 5.66667 13.9076 5.66667 16.8947V90.1053C5.66667 93.0924 6.86071 95.9573 8.98612 98.0695C11.1115 100.182 13.9942 101.368 17 101.368H68C71.0058 101.368 73.8885 100.182 76.0139 98.0695C78.1393 95.9573 79.3333 93.0924 79.3333 90.1053V45.0526H56.6667ZM45.3333 28.1579C45.3333 31.1451 46.5274 34.0099 48.6528 36.1221C50.7782 38.2344 53.6609 39.4211 56.6667 39.4211H77.01L45.3333 7.94053V28.1579ZM17 0H45.3333L85 39.4211V90.1053C85 94.586 83.2089 98.8833 80.0208 102.052C76.8327 105.22 72.5087 107 68 107H17C12.4913 107 8.1673 105.22 4.97919 102.052C1.79107 98.8833 0 94.586 0 90.1053V16.8947C0 12.414 1.79107 8.11673 4.97919 4.94835C8.1673 1.77998 12.4913 0 17 0ZM28.3333 90.1053V78.8421H17V73.2105H28.3333V61.9474H34V73.2105H45.3333V78.8421H34V90.1053H28.3333Z" fill="black"/>
</svg>
