<svg width="19" height="20" viewBox="0 0 19 20" fill="none" xmlns="http://www.w3.org/2000/svg">
<path d="M7.125 13.3326H8.38375C9.23083 13.3326 10.0225 12.9826 10.6242 12.3575L18.3033 4.26503C18.7546 3.78998 19 3.16491 19 2.49818C19 1.83144 18.7546 1.20638 18.3033 0.731326C17.3771 -0.243775 15.8729 -0.243775 14.9467 0.731326L7.25958 8.82384C6.65792 9.45724 6.33333 10.2907 6.33333 11.1824V12.5076C6.33333 12.9659 6.68958 13.341 7.125 13.341V13.3326ZM17.1871 1.90645C17.3375 2.0648 17.4167 2.27315 17.4167 2.49818C17.4167 2.7232 17.3375 2.93156 17.1871 3.08991L16.1658 4.16502L15.0496 2.98989L16.0708 1.91478C16.3796 1.58975 16.8783 1.58975 17.1871 1.91478V1.90645ZM7.91667 11.1741C7.91667 10.7324 8.08292 10.3073 8.38375 9.99896L13.9254 4.16502L15.0417 5.34014L9.5 11.1741C9.19917 11.4908 8.80333 11.6658 8.38375 11.6658H7.91667V11.1741ZM19 19.1666C19 19.625 18.6438 20 18.2083 20C16.9892 20 16.3954 19.0666 15.9679 18.3748C15.5721 17.7498 15.3742 17.4997 15.0417 17.4997C14.6379 17.4997 14.3292 17.8664 13.8463 18.4582C13.2921 19.1499 12.6033 20 11.4475 20C10.2917 20 9.61083 19.1416 9.0725 18.4415C8.61333 17.8581 8.3125 17.4997 7.91667 17.4997C7.60792 17.4997 7.41792 17.7081 6.99833 18.2582C6.42833 18.9916 5.64458 20 3.95833 20C1.77333 20 0 18.1331 0 15.8329C0 13.5327 1.77333 11.6658 3.95833 11.6658C4.39375 11.6658 4.75 12.0408 4.75 12.4992C4.75 12.9576 4.39375 13.3326 3.95833 13.3326C2.65208 13.3326 1.58333 14.4578 1.58333 15.8329C1.58333 17.208 2.65208 18.3332 3.95833 18.3332C4.8925 18.3332 5.28042 17.8331 5.77125 17.1997C6.24625 16.5913 6.83208 15.8329 7.91667 15.8329C9.08042 15.8329 9.75333 16.6913 10.2917 17.3914C10.7508 17.9748 11.0517 18.3332 11.4475 18.3332C11.8433 18.3332 12.16 17.9665 12.6429 17.3747C13.1971 16.683 13.8858 15.8329 15.0417 15.8329C16.1975 15.8329 16.8546 16.7663 17.2821 17.4581C17.6779 18.0831 17.8758 18.3332 18.2083 18.3332C18.6438 18.3332 19 18.7082 19 19.1666Z" fill="#F79544"/>
</svg>
