<svg width="31" height="30" viewBox="0 0 31 30" fill="none" xmlns="http://www.w3.org/2000/svg">
<path d="M11.6221 0.6782C12.1556 0.241551 12.8475 0 13.5646 0C14.2818 0 14.9737 0.241551 15.5071 0.6782L26.1643 9.40178C26.4673 9.65001 26.7096 9.95352 26.8756 10.2926C27.0415 10.6317 27.1272 10.9987 27.1273 11.37V14.1943C26.4862 14.1016 25.834 14.0909 25.1897 14.1625V11.37C25.1894 11.2464 25.1606 11.1242 25.1052 11.0114C25.0498 10.8986 24.969 10.7976 24.868 10.7151L14.2108 1.9915C14.0331 1.84612 13.8026 1.7657 13.5637 1.7657C13.3248 1.7657 13.0943 1.84612 12.9165 1.9915L2.25932 10.7151C2.15836 10.7976 2.07756 10.8986 2.02215 11.0114C1.96674 11.1242 1.93796 11.2464 1.93767 11.37V23.8234C1.93767 24.0575 2.03974 24.282 2.22143 24.4475C2.40312 24.613 2.64955 24.706 2.9065 24.706H13.4319C13.5004 24.7743 13.5714 24.8419 13.645 24.909L15.3444 26.4712H2.9065C2.13565 26.4712 1.39637 26.1922 0.851294 25.6957C0.30622 25.1991 0 24.5256 0 23.8234V11.37C0 10.6198 0.34878 9.90486 0.964958 9.40178L11.6221 0.6782ZM29.5475 17.2163C29.0884 16.7924 28.5414 16.4559 27.9384 16.2261C27.3353 15.9964 26.6881 15.8781 26.0345 15.8781C25.3808 15.8781 24.7337 15.9964 24.1306 16.2261C23.5276 16.4559 22.9806 16.7924 22.5215 17.2163L22.2832 17.4334L22.0448 17.2163C21.5483 16.7583 20.9497 16.4026 20.2894 16.1733C19.6291 15.944 18.9225 15.8464 18.2173 15.887C17.5121 15.9277 16.8246 16.1057 16.2013 16.409C15.578 16.7123 15.0334 17.1339 14.6042 17.6452C13.8636 18.525 13.4976 19.6192 13.5738 20.7256C13.65 21.8321 14.1633 22.8761 15.0189 23.6645L21.6651 29.7668C21.746 29.8407 21.8422 29.8994 21.9481 29.9394C22.054 29.9794 22.1676 30 22.2822 30C22.3968 30 22.5104 29.9794 22.6163 29.9394C22.7222 29.8994 22.8184 29.8407 22.8993 29.7668L29.5475 23.6645C30.4782 22.8056 31 21.6473 31 20.4404C31 19.2335 30.4782 18.0752 29.5475 17.2163Z" fill="black"/>
</svg>
