<svg width="27" height="28" viewBox="0 0 27 28" fill="none" xmlns="http://www.w3.org/2000/svg">
<path d="M2.727 28C1.94963 28 1.30106 27.7305 0.781312 27.1915C0.261562 26.6525 0.001125 25.9793 0 25.172V2.828C0 2.02183 0.260437 1.34925 0.781312 0.81025C1.30219 0.27125 1.95075 0.00116667 2.727 0H13.5321V1.75H2.727C2.46713 1.75 2.22862 1.862 2.0115 2.086C1.79437 2.31 1.68638 2.55733 1.6875 2.828V25.1738C1.6875 25.4421 1.7955 25.6888 2.0115 25.914C2.2275 26.1392 2.46544 26.2512 2.72531 26.25H13.5321V28H2.727ZM21.0296 20.1932L19.845 18.9333L23.7583 14.875H8.7615V13.125H23.7583L19.8433 9.065L21.0279 7.8085L27 14L21.0296 20.1932Z" fill="black"/>
</svg>
