<svg width="318" height="269" viewBox="0 0 318 269" fill="none" xmlns="http://www.w3.org/2000/svg">
<g filter="url(#filter0_d_582_669)">
<path fill-rule="evenodd" clip-rule="evenodd" d="M157.163 4.47983C175.973 7.32943 185.378 27.2783 203.406 32.6736C222.177 38.2912 246.024 26.4011 262.443 35.9869C278.132 45.146 280.805 64.4298 284.933 80.2694C288.71 94.7645 281.681 109.948 285.494 124.437C289.906 141.199 310.952 154.365 308.93 171.458C307.004 187.739 288.972 199.295 275.285 210.75C262.433 221.505 246.608 228.747 231.122 236.575C215.832 244.304 201.672 255.868 183.946 256.92C166.109 257.979 150.048 248.286 133.567 242.364C119.153 237.186 106.997 228.616 92.3224 224.001C74.34 218.346 52.4351 221.802 37.0763 212.017C21.9433 202.376 11.9328 186.546 8.62164 170.674C5.31998 154.848 16.1255 139.562 18.637 123.63C21.0599 108.26 16.7801 92.152 23.2828 77.6713C29.9054 62.9238 42.2302 50.3843 56.1849 40.0158C70.0358 29.7244 87.1176 23.6021 104.093 17.6281C121.269 11.5836 138.871 1.70866 157.163 4.47983Z" fill="#E8EFFE"/>
</g>
<path d="M121.166 168.749C116.12 167.986 112.426 165.847 110.084 162.334C107.749 158.777 106.974 154.254 107.76 148.766C108.577 143.06 110.693 138.841 114.106 136.109C117.564 133.384 121.881 132.412 127.058 133.195C130.973 133.787 135.044 135.315 139.269 137.779C139.001 139.028 138.565 140.676 137.961 142.72C137.364 144.721 136.766 146.567 136.169 148.256L131.74 147.987L128.433 142.214C127.377 141.832 126.174 141.539 124.826 141.335C123.738 141.17 122.728 141.084 121.796 141.077C120.521 142.842 119.634 145.467 119.135 148.951C118.623 152.523 118.873 155.275 119.885 157.208C120.904 159.097 122.696 160.236 125.263 160.624C126.481 160.809 127.986 160.858 129.776 160.773C131.572 160.644 133.434 160.369 135.361 159.949L135.991 166.719C134.076 167.675 131.758 168.348 129.035 168.737C126.356 169.133 123.733 169.137 121.166 168.749ZM139.091 164.251L143.305 163.687L147.787 132.392C147.924 131.434 147.946 130.814 147.853 130.533C147.766 130.208 147.465 129.829 146.949 129.395L144.293 127.458L145.2 122.522L147.27 122.502C153.162 122.325 157.268 122.367 159.586 122.629C159.828 123.733 159.948 124.908 159.948 126.154L157.814 141.05C160.363 140.323 162.498 139.845 164.22 139.616C165.992 139.35 167.704 139.342 169.357 139.592C176.144 140.618 178.945 145.269 177.76 153.545L175.917 166.415C175.786 167.33 175.764 167.95 175.851 168.274C175.937 168.599 176.26 168.982 176.82 169.422L179.69 171.725L178.727 176.586L160.716 173.862L161.279 167.606L164.607 167.175L166.385 154.762C166.659 152.845 166.787 151.485 166.769 150.681C166.801 149.841 166.543 149.156 165.996 148.629C165.45 148.101 164.459 147.729 163.023 147.512C161.631 147.301 159.595 147.238 156.916 147.322L154.643 163.198C154.512 164.113 154.49 164.733 154.576 165.057C154.663 165.382 154.965 165.761 155.48 166.195L158.416 168.508L157.453 173.369L138.528 170.507L139.091 164.251ZM196.375 180.056C191.285 179.286 187.569 177.144 185.228 173.631C182.93 170.124 182.171 165.648 182.951 160.204C183.493 156.414 184.632 153.271 186.368 150.775C188.109 148.235 190.323 146.434 193.009 145.371C195.694 144.309 198.69 144.028 201.997 144.528C206.913 145.271 210.451 147.408 212.613 150.939C214.817 154.476 215.44 159.132 214.479 164.905L194.117 165.563C194.464 167.485 195.119 168.963 196.082 169.999C197.095 170.998 198.515 171.635 200.342 171.911C201.603 172.102 203.129 172.155 204.919 172.07C206.716 171.941 208.553 171.685 210.43 171.301L211.005 177.996C209.22 178.972 206.988 179.658 204.309 180.054C201.63 180.45 198.986 180.45 196.375 180.056ZM204.563 157.798C204.713 156.13 204.406 154.86 203.642 153.988C202.928 153.079 201.809 152.509 200.287 152.279C199.025 152.088 197.804 152.082 196.623 152.259C195.403 154.255 194.659 156.501 194.391 158.997L204.563 157.798ZM232.245 185.547C227.198 184.784 223.504 182.645 221.163 179.132C218.828 175.575 218.053 171.052 218.839 165.564C219.656 159.858 221.772 155.639 225.185 152.907C228.643 150.182 232.96 149.21 238.137 149.993C242.052 150.585 246.123 152.113 250.348 154.576C250.08 155.826 249.644 157.474 249.04 159.518C248.443 161.519 247.845 163.365 247.247 165.054L242.819 164.785L239.512 159.012C238.456 158.63 237.253 158.337 235.904 158.133C234.817 157.968 233.807 157.882 232.875 157.875C231.599 159.64 230.712 162.265 230.213 165.749C229.702 169.321 229.952 172.073 230.964 174.006C231.983 175.895 233.775 177.034 236.342 177.422C237.56 177.607 239.064 177.656 240.855 177.571C242.651 177.442 244.513 177.167 246.44 176.747L247.07 183.517C245.155 184.473 242.837 185.146 240.114 185.535C237.435 185.931 234.812 185.935 232.245 185.547ZM250.17 181.049L254.384 180.484L258.866 149.19C259.003 148.232 259.025 147.612 258.932 147.331C258.845 147.006 258.544 146.627 258.028 146.193L255.372 144.256L256.279 139.32L258.349 139.3C264.241 139.123 268.347 139.165 270.665 139.427C270.907 140.531 271.027 141.706 271.027 142.952L267.218 169.543L275.473 163.582C275.721 163.397 275.864 163.174 275.902 162.913C275.933 162.695 275.893 162.511 275.781 162.361L274.281 159.798L275.514 156.313L290.001 158.504C290.187 160 290.226 161.586 290.12 163.261L277.958 170.9L288.064 190.183L287.653 193.058L276.167 191.321L266.788 172.548L265.721 179.996C265.59 180.911 265.568 181.531 265.655 181.855C265.742 182.18 266.043 182.559 266.559 182.993L269.495 185.306L268.532 190.167L249.607 187.305L250.17 181.049Z" fill="#609C62"/>
<path d="M57.0034 121.551C50.5685 122.205 45.6864 120.998 42.3571 117.932C39.0674 114.816 37.0896 109.622 36.4236 102.348L35.238 89.4006C35.1337 88.2614 34.9779 87.5254 34.7707 87.1927C34.6033 86.8117 34.1553 86.5034 33.4268 86.2679L31.2113 85.2327L30.8065 78.6401L51.2929 76.5579L52.2171 83.0313L46.9056 85.0969L48.1393 98.5705C48.5566 103.127 49.5422 106.654 51.0962 109.149C52.6501 111.645 55.0249 112.73 58.2204 112.405C59.271 112.299 60.2638 112.043 61.1987 111.638C62.1775 111.229 62.9929 110.726 63.6452 110.129C63.9906 109.077 64.1747 107.709 64.1973 106.027C64.216 104.3 64.0949 102.013 63.8341 99.1644L62.6846 86.611C62.5803 85.4717 62.4245 84.7357 62.2173 84.403C62.0061 84.0264 61.5144 83.7226 60.7421 83.4915L57.3562 81.9783L57.1368 75.9639L76.6383 73.9818L77.6166 81.0467L74.2865 82.3139L75.6466 97.1678C76.2926 104.222 74.9775 109.884 71.7013 114.153C68.4689 118.417 63.5696 120.883 57.0034 121.551ZM82.9512 111.683L86.9139 110.086L85.4574 94.1805C85.3692 93.2165 85.2473 92.6098 85.0919 92.3602C84.9325 92.0668 84.5522 91.7738 83.9511 91.4811L80.9175 90.1974L80.6631 85.248L82.0836 84.8382C87.7137 83.1162 91.7943 82.0823 94.3252 81.7366C94.7596 82.6211 95.1364 83.6 95.4556 84.6732C98.0135 83.1749 100.104 82.1221 101.727 81.5149C103.39 80.8594 104.966 80.456 106.455 80.3047C113.415 79.5973 117.276 83.4062 118.038 91.7313L119.218 104.613C119.302 105.534 119.424 106.14 119.583 106.434C119.743 106.727 120.145 107.018 120.79 107.306L124.11 108.826L124.299 113.782L106.176 115.624L105.276 109.414L108.409 108.166L107.272 95.7445C107.091 93.7727 106.899 92.3992 106.696 91.6238C106.492 90.8484 106.064 90.2728 105.411 89.897C104.802 89.5166 103.753 89.4021 102.265 89.5534C100.689 89.7136 98.7191 90.157 96.3556 90.8837L97.8121 106.789C97.8963 107.709 98.0182 108.316 98.1776 108.609C98.337 108.903 98.7173 109.196 99.3184 109.489L102.704 111.002L102.893 115.958L83.8512 117.893L82.9512 111.683ZM125.114 64.6764L136.006 60.5842L139.613 70.3008L128.793 74.4521L125.114 64.6764ZM126.257 107.547L130.726 105.699L129.264 89.728C129.176 88.764 129.032 88.1595 128.833 87.9144C128.673 87.621 128.271 87.3302 127.626 87.0419L124.593 85.7582L124.47 80.7954C128.039 79.7251 130.794 78.9365 132.736 78.4295C134.718 77.8743 136.538 77.4903 138.197 77.2774C138.939 79.1037 139.418 80.4702 139.633 81.377L141.559 102.409C141.643 103.329 141.765 103.936 141.925 104.229C142.084 104.523 142.486 104.813 143.131 105.102L146.517 106.615L146.706 111.571L127.007 113.573L126.257 107.547Z" fill="#F2A25E"/>
<path d="M223.856 78.0438C224.061 78.0888 224.25 78.169 224.412 78.2789C224.574 78.3888 224.703 78.5257 224.791 78.6799C224.88 78.8341 224.924 79.0018 224.923 79.1713C224.921 79.3408 224.873 79.508 224.781 79.661L227 81.6311L225.83 83L222.746 80.1827C222.434 80.043 222.197 79.8169 222.08 79.5472C221.963 79.2775 221.974 78.9829 222.111 78.7193C222.248 78.4556 222.501 78.2413 222.823 78.1168C223.145 77.9923 223.512 77.9663 223.856 78.0438Z" fill="#FFB8B8"/>
<path d="M243.963 83.3806C243.774 83.1322 243.526 82.9163 243.233 82.7454C242.941 82.5745 242.609 82.452 242.258 82.3847C241.907 82.3175 241.542 82.307 241.186 82.3537C240.83 82.4004 240.488 82.5035 240.181 82.657L233.287 86.1055L225.85 81L224 82.3913L232.216 91L242.893 86.5043C242.644 86.6093 244.264 83.7764 243.963 83.3806Z" fill="white"/>
<path d="M230 94.5C230.001 97.1922 229.316 99.8582 227.984 102.346C226.653 104.833 224.701 107.093 222.24 108.997C219.779 110.901 216.857 112.411 213.642 113.441C210.426 114.471 206.98 115.001 203.5 115C188.865 115 177 105.822 177 94.5C176.997 92.2978 177.454 90.1096 178.352 88.0197C180.114 83.9382 183.49 80.3885 188.003 77.8727C192.516 75.3568 197.937 74.0021 203.5 74C208.297 73.9987 213.005 75.0053 217.121 76.9122C221.237 78.8191 224.606 81.5549 226.869 84.8274C227.43 85.6348 227.919 86.4708 228.333 87.3296C228.391 87.4491 228.447 87.5687 228.501 87.6894V87.6906C228.744 88.2213 228.958 88.7619 229.143 89.3124C229.714 91.0062 230.002 92.7496 230 94.5Z" fill="#3F3D56"/>
<path d="M201 80.817C199.742 80.3254 198.345 80.0479 196.915 80.0057C195.486 79.9634 194.062 80.1576 192.752 80.5732C191.599 80.9358 190.385 81.5862 190 82.7607C191.556 82.0973 193.57 83.1454 193.97 84.8268L193.877 84.8454C193.665 86.01 194.137 87.2779 195.051 88C195.171 87.2499 195.854 86.7394 196.526 86.4205C197.197 86.1017 197.94 85.87 198.452 85.3219C199.06 84.672 199.214 83.7223 199.456 82.856C199.697 81.9896 200.155 81.0584 201 80.817Z" fill="white"/>
<path d="M192.41 90.8809C192.019 91.3764 191.498 91.6873 191.03 92.0744C190.563 92.4628 190.119 92.9869 190.026 93.6599C189.967 94.0911 190.059 94.5295 190.046 94.9655C190.033 95.4014 189.861 95.8922 189.51 96.0006C188.956 96.1697 188.534 95.3002 187.964 95.2394C187.512 95.1918 187.104 95.7933 187.236 96.3151C187.367 96.8368 187.983 97.0679 188.336 96.7272C188.656 97.1811 188.431 98.0042 187.95 98.1435C187.899 98.4294 187.849 98.7141 187.799 99C186.584 98.2817 185.357 97.5515 184.324 96.4997C183.175 95.3398 182.462 93.9162 182.277 92.4115C182.143 91.2025 182.342 89.8195 181.685 88.8892C181.159 88.1447 180.257 87.9803 179.445 88.0268C179.297 88.0351 179.148 88.0494 179 88.0649C179.479 86.8496 180.087 85.6734 180.817 84.5509C180.982 84.491 181.135 84.4102 181.272 84.3115C182.028 83.7695 182.363 82.6724 182.976 81.9136C183.016 81.8647 183.056 81.8171 183.099 81.7706C183.726 81.0786 184.566 80.7224 185.378 80.3912C187.175 79.6539 189.024 78.907 190.921 79.0095L190.381 79.0535C189.751 80.5449 189.121 82.0363 188.49 83.5277C188.394 83.7564 188.297 83.9855 188.2 84.215C187.842 85.0631 187.472 85.966 187.527 86.9154C187.56 87.4776 187.791 88.078 188.231 88.271C188.641 88.4496 189.089 88.2305 189.485 88.0137C189.653 87.9231 189.819 87.8326 189.987 87.7409C190.589 87.4133 191.255 87.0774 191.891 87.2966C192.473 87.4967 192.903 88.1649 192.985 88.8856C193.06 89.5862 192.857 90.2879 192.41 90.8809Z" fill="white"/>
<path d="M196.177 100.686C194.279 99.8111 192.382 98.9366 190.484 98.0621L190.516 98C189.336 98.3363 188.847 99.906 189.042 101.19C189.237 102.473 189.898 103.621 190.232 104.872C190.682 106.583 190.512 108.354 189.739 110C192.235 107.904 194.443 105.627 196.331 103.202C196.595 102.896 196.796 102.562 196.927 102.212C197.048 101.839 197.029 101.391 196.788 101.092C196.633 100.921 196.423 100.781 196.177 100.686Z" fill="white"/>
<path d="M189.208 84.2742C188.998 84.6627 188.917 85.1808 189.108 85.5828C189.302 85.9934 189.714 86.1789 190.092 86.3334L191.185 86.7791C191.548 86.9274 191.94 87.0771 192.311 86.9552C192.758 86.808 193.068 86.2314 192.987 85.6961C192.902 85.1264 192.466 84.7346 192.062 84.4009C191.498 83.9339 190.933 83.467 190.368 83L190.05 83.3208C189.706 83.5971 189.421 83.9195 189.208 84.2742Z" fill="white"/>
<path d="M224.363 89.9748C224.803 90.0594 225.243 90.144 225.683 90.2286C225.607 91.4424 224.87 92.5657 223.882 92.9726C223.471 93.1419 223.012 93.2044 222.671 93.5209C222.363 93.8084 222.207 94.2559 222.064 94.6837C221.813 95.4302 221.561 96.1768 221.31 96.9233C221.04 97.7279 220.694 98.6217 219.993 98.9115C219.391 99.1607 218.703 98.8558 218.24 98.3446C217.777 97.8334 217.495 97.1459 217.221 96.4759C217.238 97.2062 216.822 97.9226 216.233 98.1765C215.642 98.4304 214.924 98.2008 214.529 97.634C214.246 97.2271 214.128 96.6903 213.85 96.2776C213.571 95.865 212.988 95.6285 212.684 96.0156C212.484 96.273 212.51 96.6671 212.41 96.9941C212.255 97.5018 211.787 97.8206 211.323 97.8484C210.86 97.8763 210.409 97.6583 210.021 97.3627C209.222 96.7506 208.633 95.7792 208.405 94.6999C208.304 94.2188 208.275 93.6948 208.45 93.2439C208.625 92.7929 209.046 92.4451 209.465 92.5309C209.74 92.0556 209.197 91.425 208.707 91.4806C208.216 91.5363 207.831 91.9664 207.428 92.2968C207.026 92.6271 206.464 92.8671 206.06 92.539C206.062 92.8439 205.759 93.0456 205.496 93.0201C205.235 92.9958 205.002 92.8242 204.762 92.7025C203.835 92.2307 202.659 92.5437 202 93.4363C202.412 92.0058 203.015 90.3643 204.28 90.0281C204.796 89.8901 205.36 90.0037 205.848 89.7649C206.713 89.3418 206.887 87.7432 206.141 87.0836C206.236 87.7072 206.217 88.4352 205.814 88.8619C205.411 89.2885 204.565 89.0102 204.616 88.3796C204.5 88.8143 203.921 88.8804 203.654 88.5465C203.385 88.2127 203.408 87.6667 203.598 87.2679C203.788 86.8691 204.112 86.5828 204.426 86.308C205.1 85.718 205.784 85.1209 206.565 84.75C207.347 84.379 208.25 84.2538 209.033 84.6225C209.446 84.8172 209.81 85.1418 210.231 85.3134C210.653 85.4861 211.188 85.4641 211.468 85.0606C211.781 84.6109 211.634 83.9431 211.75 83.3809C211.959 82.3874 213.175 81.9225 213.85 82.5787C213.346 82.4732 212.825 82.9601 212.762 83.5501C212.698 84.1402 213.063 84.7361 213.551 84.9146C214.372 85.2114 215.175 84.4648 215.796 83.7739C216.443 83.0505 217.091 82.3275 217.74 81.6049C217.844 81.4819 217.96 81.3663 218.088 81.2595C218.291 81.0976 218.562 81.0049 218.846 81.0002C219.13 80.9955 219.406 81.079 219.617 81.234C220.273 81.671 220.581 82.5671 221.119 83.1838C221.899 84.0799 223.067 84.2979 224.155 84.4718C224.965 84.6004 225.776 84.7299 226.588 84.8601C227.129 85.6819 227.6 86.5329 228 87.407C226.626 87.8835 225.358 88.7749 224.363 89.9748Z" fill="white"/>
<path d="M227 103.185C226.377 104.204 225.652 105.18 224.832 106.105C224.309 105.925 223.746 106.247 223.255 106.549C222.743 106.865 222.128 107.173 221.603 106.885C221.066 106.59 220.893 105.764 221.063 105.109C221.233 104.456 221.658 103.936 222.07 103.441C222.506 102.916 222.973 102.372 223.58 102.168C224.188 101.964 224.969 102.252 225.147 102.948L225.577 102.936C225.336 102.669 225.462 102.116 225.787 102.019C226.161 101.906 226.485 102.319 226.706 102.685C226.805 102.85 226.905 103.016 227 103.185Z" fill="white"/>
<path d="M210.853 98.7276C209.848 98.7746 209.053 97.8544 208.524 96.9491C207.995 96.0438 207.513 95.0086 206.606 94.5478C206.088 94.2845 205.498 94.2484 204.936 94.1208C204.374 93.9932 203.786 93.7292 203.518 93.1916L202.881 93C202.039 93.3521 201.186 93.7107 200.461 94.2837C199.648 94.9265 199.141 95.7506 199.02 96.6289C198.898 97.578 199.347 98.6363 200.187 98.9928C200.851 99.2745 201.624 99.097 202.296 99.3549C203.136 99.6771 203.634 100.613 203.823 101.537C204.012 102.462 203.964 103.422 204.099 104.357C204.234 105.291 204.606 106.264 205.377 106.743C206.34 107.342 207.755 106.844 208.187 105.753C208.399 105.218 208.392 104.614 208.551 104.059C208.83 103.08 209.584 102.354 210.182 101.552C210.78 100.749 211.251 99.659 210.853 98.7276Z" fill="white"/>
<path d="M202.091 88.9248C202.147 89.0008 202.199 89.0826 202.247 89.1696C202.297 89.2962 202.323 89.4404 202.321 89.5868C202.319 89.7331 202.291 89.876 202.238 90C202.31 89.9939 202.381 89.9658 202.446 89.9174C202.51 89.869 202.568 89.8014 202.614 89.7188C202.723 89.5348 202.82 89.3345 202.902 89.1213C202.963 88.974 203.028 88.7749 202.987 88.6C202.958 88.4806 202.891 88.4297 202.844 88.3399C202.769 88.1976 202.751 87.9716 202.712 87.7763C202.629 87.3545 202.429 87.0443 202.212 87L202.242 87.0085C202.151 87.0542 202.088 87.2661 202.108 87.4568C202.126 87.6305 202.202 87.7747 202.195 87.9518C202.184 88.2065 202.011 88.326 202 88.5807C201.998 88.7085 202.031 88.8321 202.091 88.9248Z" fill="white"/>
<path d="M199.844 86.9495C199.962 86.8503 200.028 86.576 199.989 86.3464C199.95 86.1182 199.813 85.9648 199.686 86.007C199.649 86.0556 199.603 86.0913 199.553 86.1106C199.503 86.1299 199.45 86.1322 199.399 86.1173C199.32 86.091 199.234 86.0232 199.167 86.1002C199.128 86.1578 199.1 86.2271 199.087 86.3019C199.062 86.4027 199.037 86.5035 199.012 86.6043C199 86.6404 198.997 86.6804 199.003 86.7189C199.008 86.7343 199.016 86.7479 199.026 86.7582C199.036 86.7686 199.047 86.7754 199.06 86.7781C199.211 86.8362 199.362 86.8942 199.513 86.9523C199.623 86.9946 199.741 87.0354 199.844 86.9495Z" fill="white"/>
<path d="M219.776 99.9674C219.627 99.8193 219.478 99.6712 219.329 99.523C219.183 99.3515 218.984 99.199 218.742 99.074C218.688 99.0468 218.627 99.0265 218.56 99.014C218.494 99.0016 218.424 98.9974 218.355 99.0016C218.286 99.0058 218.219 99.0184 218.158 99.0386C218.097 99.0588 218.043 99.0862 218 99.1192L218.018 99.2038C218.357 99.4625 218.716 99.7499 218.802 100.134C218.836 100.285 218.824 100.442 218.853 100.594C218.883 100.746 218.968 100.904 219.129 100.969C219.363 101.064 219.638 100.924 219.805 100.753C219.954 100.612 220.021 100.445 219.994 100.279C219.957 100.167 219.883 100.061 219.776 99.9674Z" fill="white"/>
<path d="M224.893 94.3481C224.917 94.1768 224.942 94.0056 224.966 93.8343C225.006 93.6462 225.011 93.4517 224.981 93.2616C224.974 93.2201 224.959 93.1804 224.938 93.145C224.916 93.1095 224.889 93.079 224.856 93.0552C224.823 93.0314 224.787 93.0148 224.748 93.0064C224.709 92.998 224.669 92.9979 224.631 93.0061L224.588 93.0778C224.579 93.4079 224.562 93.7676 224.369 94.0944C224.292 94.2232 224.193 94.3382 224.114 94.4659C224.036 94.5936 223.978 94.747 224.008 94.8602C224.053 95.0244 224.257 95.0247 224.433 94.9592C224.582 94.91 224.712 94.8086 224.801 94.6713C224.852 94.5714 224.883 94.4614 224.893 94.3481Z" fill="#E6E6E6"/>
<path d="M221.689 100.864C221.73 100.725 221.671 100.565 221.658 100.411C221.652 100.212 221.697 100.016 221.787 99.8479C221.877 99.689 221.945 99.5148 221.988 99.3315C222.007 99.2479 222.003 99.1599 221.979 99.0786C221.951 99.005 221.883 98.9714 221.844 99.0297L221.927 99.0924C221.815 99.0689 221.699 99.0755 221.59 99.1116C221.527 99.1397 221.471 99.185 221.426 99.2438C221.382 99.3026 221.35 99.3731 221.334 99.4494C221.32 99.5683 221.298 99.6855 221.267 99.7999C221.217 99.9193 221.121 99.9591 221.061 100.064C221.019 100.157 220.999 100.26 221 100.365C221.002 100.47 221.025 100.572 221.069 100.664C221.145 100.813 221.265 100.924 221.407 100.975C221.509 101.018 221.643 101.02 221.689 100.864Z" fill="white"/>
<path d="M225.206 101.598C225.26 101.667 225.333 101.733 225.422 101.794C225.589 101.877 225.816 101.826 226.019 101.805C226.202 101.791 226.391 101.802 226.564 101.836C226.736 101.87 226.887 101.927 227 102C226.921 101.806 226.75 101.625 226.5 101.471C226.25 101.316 225.929 101.194 225.563 101.114C225.086 101.018 224.583 101.009 224.086 101L224 101.011C224.219 101.325 224.905 101.318 225.206 101.598Z" fill="white"/>
<path d="M210.424 102.897C210.331 103.081 210.252 103.273 210.186 103.47C210.098 103.789 210.04 104.118 210.013 104.45C209.991 104.639 209.985 104.88 210.093 104.972C210.124 104.995 210.161 105.004 210.198 104.998C210.235 104.993 210.269 104.973 210.294 104.942C210.354 104.873 210.403 104.793 210.439 104.706C210.652 104.305 210.817 103.876 210.931 103.43C211.034 102.96 211.033 102.407 210.85 102C210.708 102.299 210.566 102.598 210.424 102.897Z" fill="white"/>
<path d="M205.279 81.8542C205.363 81.924 205.468 81.9714 205.582 81.9905C205.696 82.0097 205.815 81.9997 205.923 81.9619C206.146 81.8782 206.351 81.7622 206.528 81.619C206.675 81.5259 206.799 81.4094 206.895 81.2758C206.947 81.196 206.981 81.1081 206.994 81.0171C207.007 80.9261 206.999 80.8339 206.97 80.7456C206.887 80.5377 206.677 80.4681 206.491 80.4209C206.194 80.3453 205.897 80.2698 205.6 80.1943L205.815 80.0282C205.594 79.9265 205.349 80.1153 205.211 80.3491C205.122 80.5017 205.06 80.6647 205.028 80.8329C204.954 81.1998 205.026 81.6367 205.279 81.8542Z" fill="#E6E6E6"/>
<path d="M210.34 80.8851C210.484 80.951 210.682 80.9916 210.895 80.9988C211.109 81.0061 211.321 80.9793 211.488 80.9239C211.632 80.8789 211.752 80.8218 211.839 80.7563C211.927 80.6908 211.98 80.6184 211.996 80.5438C212.032 80.3771 211.834 80.1917 211.55 80.1774L211.615 80.0213C211.069 79.9803 210.398 79.9721 210.106 80.2475C210.007 80.353 209.977 80.4674 210.018 80.5793C210.059 80.6912 210.17 80.7967 210.34 80.8851Z" fill="#E6E6E6"/>
<path d="M209.737 72.0343C207.907 71.8724 206.069 72.2873 204.629 73.1876C203.189 74.088 202.264 75.4001 202.057 76.8352C201.627 79.8238 203.635 86.3135 207.296 89C209.02 83.8529 215.06 80.8 215.86 78.056C216.714 75.124 213.548 72.3714 209.737 72.0343Z" fill="#D30909" fill-opacity="0.59"/>
<path d="M208.5 79C209.881 79 211 78.1046 211 77C211 75.8954 209.881 75 208.5 75C207.119 75 206 75.8954 206 77C206 78.1046 207.119 79 208.5 79Z" fill="white"/>
<path d="M206.5 92C207.328 92 208 91.3284 208 90.5C208 89.6716 207.328 89 206.5 89C205.672 89 205 89.6716 205 90.5C205 91.3284 205.672 92 206.5 92Z" fill="#84A9EA"/>
<path opacity="0.2" d="M211.04 75.2412C211.263 75.3781 211.457 75.5585 211.612 75.7722C211.766 75.9858 211.878 76.2285 211.941 76.4864C212.004 76.7443 212.017 77.0124 211.978 77.2752C211.94 77.5381 211.851 77.7907 211.717 78.0185C211.583 78.2463 211.407 78.4449 211.198 78.603C210.989 78.7611 210.751 78.8756 210.499 78.9399C209.989 79.0697 209.45 78.9874 209 78.7109C209.459 78.8152 209.939 78.7492 210.355 78.5247C210.771 78.3001 211.095 77.9317 211.269 77.4853C211.443 77.0389 211.456 76.5437 211.306 76.0884C211.156 75.633 210.852 75.2472 210.448 75C210.657 75.0472 210.857 75.1287 211.04 75.2412Z" fill="#231F20"/>
<path opacity="0.2" d="M215.855 77.9464C215.027 80.7178 208.775 83.8014 206.99 89C206.634 88.7424 206.303 88.4649 206 88.1699C208.005 83.2834 213.869 80.3141 214.668 77.6364C215.383 75.2398 213.374 72.9621 210.49 72C213.981 72.6714 216.665 75.2326 215.855 77.9464Z" fill="#231F20"/>
<path d="M187.5 84C188.328 84 189 83.3284 189 82.5C189 81.6716 188.328 81 187.5 81C186.672 81 186 81.6716 186 82.5C186 83.3284 186.672 84 187.5 84Z" fill="white"/>
<path d="M186 94C186.552 94 187 93.5523 187 93C187 92.4477 186.552 92 186 92C185.448 92 185 92.4477 185 93C185 93.5523 185.448 94 186 94Z" fill="#84A9EA"/>
<path opacity="0.2" d="M189.04 82.1206C189.263 82.189 189.457 82.2793 189.612 82.3861C189.766 82.4929 189.878 82.6143 189.941 82.7432C190.004 82.8722 190.017 83.0062 189.978 83.1376C189.94 83.2691 189.851 83.3953 189.717 83.5092C189.583 83.6232 189.407 83.7225 189.198 83.8015C188.989 83.8806 188.751 83.9378 188.499 83.9699C188.247 84.0021 187.984 84.0085 187.727 83.9889C187.47 83.9692 187.223 83.9239 187 83.8554C187.459 83.9076 187.939 83.8746 188.355 83.7623C188.771 83.6501 189.095 83.4658 189.269 83.2427C189.443 83.0195 189.456 82.7719 189.306 82.5442C189.155 82.3165 188.852 82.1236 188.448 82C188.657 82.0236 188.857 82.0643 189.04 82.1206Z" fill="#231F20"/>
<path opacity="0.2" d="M192.898 83.5472C192.319 85.6666 187.942 88.0246 186.693 92C186.444 91.803 186.212 91.5908 186 91.3652C187.404 87.6284 191.508 85.3578 192.068 83.3102C192.568 81.4775 191.162 79.7358 189.143 79C191.586 79.5134 193.465 81.472 192.898 83.5472Z" fill="#231F20"/>
<path d="M242 127H239.967L239 122L242 122L242 127Z" fill="#A0616A"/>
<path d="M243 130H241.772L241.552 129.192L240.991 130H237.732C237.576 130 237.424 129.965 237.298 129.901C237.173 129.836 237.08 129.745 237.033 129.641C236.987 129.538 236.989 129.426 237.04 129.323C237.091 129.22 237.188 129.131 237.316 129.07L239.918 127.817V127L242.655 127.114L243 130Z" fill="#2F2E41"/>
<path d="M234 127H232.645L232 122L234 122L234 127Z" fill="#A0616A"/>
<path d="M236 130H234.567L234.311 129.192L233.656 130H229.855C229.672 130 229.495 129.965 229.348 129.901C229.201 129.836 229.093 129.745 229.039 129.641C228.984 129.538 228.987 129.426 229.047 129.323C229.106 129.22 229.219 129.131 229.369 129.07L232.405 127.817V127L235.597 127.114L236 130Z" fill="#2F2E41"/>
<path d="M228.108 111.849C228.443 112.281 232.089 124.137 232.089 124.137L235.321 124.453L234.938 121.47L234.351 116.191L233.443 112.667C233.443 112.667 236.65 106.405 236.853 105.906L236.997 105.548L237.999 113.35C238.118 113.629 238.17 113.925 238.152 114.221C238.121 114.709 238.691 122.041 238.691 122.041L238.965 124.67L241.735 125L242.859 120.451C243.797 118.973 243.259 113.721 242.875 113.232C242.492 112.744 242.644 109.339 242.644 109.339C243.134 109.191 246.056 100.643 244.594 100.694C244.688 100.238 244.762 99.8312 244.762 99.8312L242.225 98.0759L235.876 96.6599L234.274 96C234.274 96 231.413 100.538 231.442 100.764C231.481 101.05 231.405 101.339 231.226 101.582L228.337 109.876C228.337 109.876 227.769 111.414 228.108 111.849Z" fill="#2F2E41"/>
<path d="M244.006 83.7573L242.95 82L239.357 82.1083L238.185 83.9365C238.185 83.9365 234.836 87.073 234.727 88.0928C234.591 89.3755 235.724 95.6621 234.591 95.2546C234.591 95.2546 231.919 97.7131 233.5 97.7131C235.081 97.7131 242.232 101.232 242.701 101.628C243.17 102.024 245.265 102.281 245.089 101.454C244.913 100.628 244.006 96.1595 244.006 96.1595L246.463 89.1332C247.17 87.6162 247.39 85.9147 245.791 84.8957L244.006 83.7573Z" fill="white"/>
<path d="M231.198 78.2127C230.675 78.0666 230.117 77.9945 229.555 78.0003C228.993 78.0062 228.438 78.09 227.922 78.247C227.406 78.4039 226.939 78.6309 226.548 78.9151C226.156 79.1992 225.848 79.5349 225.641 79.9029C224.769 81.4508 224.624 85.1473 226.247 87C228.334 84.4461 232.555 83.5031 233.596 82.128C234.709 80.6586 233.395 78.8272 231.198 78.2127Z" fill="#7BF27E" fill-opacity="0.42"/>
<path d="M229.5 82C230.328 82 231 81.5523 231 81C231 80.4477 230.328 80 229.5 80C228.672 80 228 80.4477 228 81C228 81.5523 228.672 82 229.5 82Z" fill="white"/>
<path d="M225.5 89C225.776 89 226 88.5523 226 88C226 87.4477 225.776 87 225.5 87C225.224 87 225 87.4477 225 88C225 88.5523 225.224 89 225.5 89Z" fill="#6C63FF"/>
<path opacity="0.2" d="M230.517 80.2052C230.836 80.4085 231.01 80.6806 231 80.9618C230.99 81.243 230.797 81.5103 230.463 81.7049C230.13 81.8996 229.683 82.0056 229.221 81.9998C228.759 81.9939 228.32 81.8767 228 81.6738C228.366 81.7912 228.789 81.8254 229.193 81.7702C229.597 81.7151 229.955 81.5742 230.204 81.3729C230.453 81.1715 230.576 80.9228 230.551 80.6713C230.526 80.4197 230.355 80.1818 230.069 80C230.235 80.0532 230.386 80.1225 230.517 80.2052Z" fill="#231F20"/>
<path opacity="0.2" d="M233.604 81.9064C232.582 83.3441 228.44 84.33 226.392 87C226.243 86.8165 226.112 86.6249 226 86.4269C228.11 83.9549 232.01 82.9874 232.997 81.5983C233.881 80.3551 233.204 78.8641 231.771 78C233.605 78.7731 234.605 80.4986 233.604 81.9064Z" fill="#231F20"/>
<path d="M225.171 87.0257C225.378 86.9889 225.593 86.9917 225.799 87.0338C226.005 87.076 226.197 87.1565 226.363 87.2697C226.529 87.3829 226.664 87.526 226.759 87.6889C226.853 87.8519 226.905 88.0307 226.911 88.2128L230 89.2332L229.737 91L225.398 89.5062C225.042 89.4941 224.704 89.37 224.447 89.1574C224.19 88.9449 224.033 88.6586 224.005 88.3528C223.976 88.047 224.08 87.7431 224.295 87.4984C224.51 87.2538 224.822 87.0856 225.171 87.0257Z" fill="#FFB8B8"/>
<path d="M246.108 84.3125C245.787 84.1662 245.431 84.0686 245.059 84.0254C244.687 83.9822 244.308 83.9942 243.942 84.0607C243.577 84.1272 243.233 84.2469 242.929 84.4129C242.626 84.5789 242.37 84.788 242.175 85.0281L237.798 90.4229L227.902 88.6721L227 90.5195L239.673 95L246.091 87.3698C247.052 86.3618 247.523 84.9571 246.108 84.3125Z" fill="white"/>
<path d="M246 77.9994C246 78.4904 245.82 78.9739 245.474 79.4075C245.129 79.8411 244.629 80.2116 244.018 80.4863C243.408 80.7611 242.706 80.9318 241.973 80.9834C241.24 81.035 240.5 80.966 239.817 80.7823C239.134 80.5987 238.529 80.3061 238.055 79.9302C237.581 79.5544 237.253 79.1067 237.099 78.6265C236.945 78.1464 236.971 77.6484 237.173 77.1763C237.376 76.7043 237.749 76.2725 238.26 75.919L238.282 75.9046C238.318 75.8794 238.354 75.8542 238.391 75.8302C238.392 75.8302 238.392 75.8302 238.392 75.8302C238.392 75.8301 238.393 75.83 238.393 75.8299C238.393 75.8298 238.393 75.8296 238.393 75.8295C238.393 75.8294 238.393 75.8292 238.393 75.829C238.44 75.8002 238.487 75.7715 238.535 75.7439C239.186 75.3639 239.986 75.1169 240.842 75.0324C241.697 74.9479 242.571 75.0296 243.359 75.2675C244.146 75.5055 244.814 75.8898 245.283 76.3743C245.751 76.8588 246 77.423 246 77.9994Z" fill="#2F2E41"/>
<path d="M240.5 81C242.433 81 244 79.6569 244 78C244 76.3431 242.433 75 240.5 75C238.567 75 237 76.3431 237 78C237 79.6569 238.567 81 240.5 81Z" fill="#FFB8B8"/>
<path d="M243.896 79L243.401 78.9245C243.125 78.8811 242.87 78.7659 242.672 78.5942C242.473 78.4225 242.34 78.2025 242.29 77.9637L241.808 78.6624L241.786 78.6685C240.636 78.9983 239.44 78.8996 238.129 78.3673C237.754 78.2138 237.39 78.0406 237.04 77.8489L237.014 77.8349L237.012 77.8087C236.945 76.9697 237.163 76.2688 237.626 75.8351C237.803 75.672 238.019 75.5431 238.258 75.4569C238.498 75.3707 238.756 75.3292 239.015 75.335C239.033 75.3309 239.05 75.3228 239.064 75.3115C239.071 75.3073 239.078 75.3031 239.084 75.2991V75.2948L239.118 75.2809C239.192 75.2509 239.267 75.2223 239.342 75.1961C239.933 74.9986 240.577 74.949 241.199 75.0531C241.821 75.1573 242.396 75.4108 242.859 75.7847C243.779 76.5431 244.2 77.8158 243.909 78.9518L243.896 79Z" fill="#2F2E41"/>
<path d="M251.851 81.1245C250.687 80.6562 252.184 78.9565 251.884 77.9627C251.583 76.969 249.416 76.6494 249.278 75.634C249.14 74.6186 248.816 73.5714 247.956 72.8009C247.407 72.3086 246.597 71.9452 245.764 72.0068C245.482 72.0277 245.209 72.0957 244.964 72.2061C244.719 72.3166 244.507 72.467 244.343 72.647C244.179 72.827 244.067 73.0325 244.014 73.2493C243.961 73.4662 243.969 73.6894 244.036 73.9038C243.799 73.6417 243.185 73.6985 243.033 73.9966C242.898 74.2615 243.197 74.5825 243.548 74.6059C244.008 75.0484 244.534 75.518 245.254 75.6072C245.369 75.6278 245.488 75.6277 245.603 75.6071C245.717 75.5864 245.825 75.5458 245.916 75.4881C246.086 75.3613 246.099 75.1078 245.898 75.013C246.803 75.2932 247.334 76.0559 247.468 76.8076C247.602 77.5594 247.416 78.32 247.294 79.073C247.171 79.826 247.119 80.6181 247.498 81.3173C247.945 82.1435 248.975 82.7356 250.1 82.9255C251.224 83.1154 252.422 82.9298 253.44 82.5117C254.458 82.0935 255.307 81.4551 256 80.7395C254.806 81.4005 253.153 81.6482 251.851 81.1245Z" fill="#2F2E41"/>
<path d="M244 79C244 79 243.07 75.9213 239.081 75.2107C239.076 75.2094 239.061 75.2041 239.042 75.1961C239.03 75.1895 239.015 75.1828 239 75.1762C239.045 75.1536 239.088 75.1337 239.133 75.1138L239.134 75.1137L239.134 75.1134L239.135 75.1129L239.135 75.1124C239.174 75.0805 239.213 75.0487 239.253 75.0181L239.367 75.0221C239.367 75.0221 243.369 74.4603 244 79Z" fill="#FD6584"/>
<path opacity="0.2" d="M242 89L239.361 91.316L235 90.3406L239.754 92L242 89Z" fill="white"/>
<path d="M258.472 110C256.685 110 254.726 109.946 252.595 109.838C241.575 109.276 227.302 107.326 212.403 104.345C197.504 101.364 183.761 97.7084 173.704 94.0525C168.805 92.2715 165.046 90.5857 162.529 89.0418C159.865 87.4073 158.7 85.9826 159.066 84.8074C159.778 82.5179 166.087 82.017 171.255 82L171.257 82.333C164.16 82.3563 159.974 83.2638 159.469 84.8881C158.825 86.9568 164.076 90.1866 173.876 93.7492C183.91 97.3971 197.628 101.045 212.503 104.022C227.378 106.998 241.626 108.945 252.621 109.505C263.359 110.052 269.888 109.179 270.532 107.11C271.066 105.393 267.542 102.862 260.609 99.9853L260.8 99.6897C265.837 101.78 271.685 104.778 270.935 107.191C270.569 108.366 268.705 109.185 265.396 109.624C263.509 109.874 261.192 110 258.472 110Z" fill="#D30909"/>
<path d="M55.3234 190.519C55.1398 190.518 54.9533 190.501 54.7675 190.468L31.9529 186.441C31.4006 186.345 30.8758 186.113 30.4648 185.782C30.0538 185.452 29.781 185.043 29.6914 184.624L20.7045 143.404C20.6463 143.137 20.6636 142.874 20.7551 142.632C20.8467 142.39 21.0104 142.175 21.235 142.002C21.4597 141.829 21.74 141.702 22.0569 141.629C22.3738 141.556 22.7199 141.54 23.0715 141.581L44.8824 144.111C45.0508 144.13 45.2181 144.133 45.3801 144.12L67.8326 142.196C68.0061 142.181 68.1846 142.182 68.3648 142.197L91.9072 144.206C92.5104 144.257 93.1059 144.475 93.5787 144.818C94.0515 145.16 94.3679 145.604 94.4667 146.063L102.301 182.004C102.37 182.318 102.335 182.626 102.198 182.899C102.062 183.173 101.828 183.403 101.519 183.568L94.1873 187.519C93.8423 187.705 93.4167 187.803 92.9601 187.8L79.3913 187.735C79.294 187.735 79.1981 187.74 79.1044 187.751L55.6883 190.499C55.5691 190.513 55.4471 190.52 55.3234 190.519Z" fill="white"/>
<path d="M79.1014 145.75L76.1115 145.495L68.1886 144.82L68.1747 144.818L56.7911 145.794L52.5665 146.156L52.5646 146.155L46.2201 146.698L46.0554 146.679L39.8271 145.957L36.8169 145.609L24.5414 144.184L33.2148 183.976L45.659 186.173L48.7106 186.711L55.2143 187.859L55.2896 187.873L77.9814 185.21L91.3126 185.273L98.5002 181.4L90.9511 146.761L79.1014 145.75Z" fill="#E6E6E6"/>
<path d="M92.1956 152.468L26.2795 152.156L26.7721 154.416L92.6882 154.727L92.1956 152.468Z" fill="white"/>
<path d="M93.8374 160.001L27.9214 159.689L28.414 161.949L94.33 162.261L93.8374 160.001Z" fill="white"/>
<path d="M97.1541 175.216L31.238 174.904L31.7306 177.164L97.6467 177.475L97.1541 175.216Z" fill="white"/>
<path d="M79.1012 145.75L87.7128 185.255L84.7758 185.241L76.1112 145.495L79.1012 145.75Z" fill="white"/>
<path d="M56.7902 145.794L50.9049 152.273L48.8635 154.522L44.1016 159.766L43.0818 160.888L42.0599 162.015L40.7161 163.493L31.0662 174.118L30.3126 170.66L38.1813 161.996L39.9621 160.034L40.2229 159.748L42.3285 157.428L44.985 154.503L47.0263 152.255L52.5645 146.156L56.7902 145.794Z" fill="white"/>
<path opacity="0.1" d="M78.4608 185.212L77.9828 185.21L55.291 187.873L55.2154 187.859L46.0553 146.681L46.22 146.7L52.5653 146.157L56.7902 145.794L68.1746 144.818L68.1888 144.82L78.4608 185.212Z" fill="black"/>
<path d="M55.3662 190.718C55.163 190.717 54.9566 190.698 54.751 190.662L31.9364 186.634C31.3251 186.528 30.7443 186.271 30.2894 185.905C29.8345 185.54 29.5327 185.088 29.4336 184.623L20.4471 143.403C20.3827 143.108 20.4018 142.816 20.5031 142.549C20.6045 142.281 20.7856 142.043 21.0342 141.852C21.2828 141.66 21.5931 141.519 21.9438 141.439C22.2946 141.358 22.6776 141.34 23.0667 141.385L44.8773 143.916C45.023 143.933 45.1676 143.936 45.3077 143.924L67.7602 142.001C67.9522 141.984 68.1497 141.984 68.3492 142.002L91.8916 144.011C92.5589 144.066 93.218 144.307 93.7412 144.686C94.2644 145.066 94.6147 145.556 94.7242 146.064L102.558 182.005C102.635 182.352 102.596 182.693 102.445 182.996C102.294 183.299 102.035 183.553 101.694 183.736L94.3617 187.687C93.98 187.893 93.5091 188.001 93.0038 187.998L79.4345 187.934C79.3503 187.933 79.2674 187.938 79.1864 187.947L55.7701 190.696C55.6382 190.711 55.5032 190.719 55.3662 190.718ZM22.8421 142.153C22.4068 142.152 22.0185 142.283 21.7624 142.518C21.5063 142.754 21.4034 143.074 21.4764 143.409L30.4614 184.628C30.5223 184.913 30.7079 185.191 30.9875 185.416C31.2671 185.641 31.6242 185.799 32 185.864L54.8146 189.891C55.0266 189.929 55.2393 189.936 55.4411 189.912L78.8576 187.164C78.9892 187.149 79.1239 187.141 79.2606 187.142L92.8296 187.206C93.1408 187.208 93.4309 187.142 93.666 187.015L100.998 183.065C101.208 182.952 101.367 182.796 101.46 182.609C101.553 182.423 101.577 182.214 101.53 182L93.6954 146.059C93.6278 145.747 93.4124 145.446 93.0909 145.213C92.7695 144.98 92.3646 144.832 91.9546 144.797L68.4104 142.788C68.2879 142.778 68.1666 142.778 68.0485 142.787L45.5969 144.711C45.3691 144.73 45.1339 144.726 44.897 144.699L23.0862 142.168C23.0043 142.159 22.9225 142.154 22.8417 142.154L22.8421 142.153Z" fill="#E6E6E6"/>
<path d="M39.8275 145.957L48.7113 186.711L45.66 186.173L36.8172 145.609L39.8275 145.957Z" fill="white"/>
<path d="M41.2225 161.788C41.9747 162 42.7085 161.733 42.8616 161.19C43.0146 160.648 42.5289 160.036 41.7767 159.824C41.0246 159.612 40.2907 159.879 40.1377 160.421C39.9846 160.964 40.4703 161.576 41.2225 161.788Z" fill="#3F3D56"/>
<path d="M89.2176 176.464C89.9698 176.676 90.7036 176.408 90.8567 175.866C91.0097 175.324 90.524 174.712 89.7719 174.5C89.0197 174.287 88.2858 174.555 88.1328 175.097C87.9797 175.64 88.4654 176.251 89.2176 176.464Z" fill="#527EE3"/>
<path d="M95.0515 157.9C95.7788 161.237 91.2057 170.323 89.6815 173.224C89.6332 173.315 89.551 173.392 89.4432 173.444C89.3355 173.497 89.2061 173.525 89.0682 173.524C88.9302 173.523 88.7885 173.495 88.6576 173.441C88.5266 173.387 88.411 173.31 88.3224 173.217C85.5285 170.297 76.9804 161.148 76.2529 157.812C75.8348 155.894 76.4242 154.059 77.8913 152.711C79.3584 151.363 81.5831 150.613 84.0759 150.625C86.5688 150.636 89.1256 151.41 91.1839 152.774C93.2423 154.139 94.6335 155.983 95.0515 157.9Z" fill="#527EE3"/>
<path d="M84.623 161.504C87.4168 162.292 90.1424 161.298 90.7109 159.284C91.2794 157.269 89.4755 154.997 86.6817 154.209C83.8879 153.42 81.1622 154.414 80.5937 156.429C80.0252 158.443 81.8292 160.715 84.623 161.504Z" fill="white"/>
<defs>
<filter id="filter0_d_582_669" x="0" y="0" width="317.067" height="269" filterUnits="userSpaceOnUse" color-interpolation-filters="sRGB">
<feFlood flood-opacity="0" result="BackgroundImageFix"/>
<feColorMatrix in="SourceAlpha" type="matrix" values="0 0 0 0 0 0 0 0 0 0 0 0 0 0 0 0 0 0 127 0" result="hardAlpha"/>
<feMorphology radius="4" operator="dilate" in="SourceAlpha" result="effect1_dropShadow_582_669"/>
<feOffset dy="4"/>
<feGaussianBlur stdDeviation="2"/>
<feComposite in2="hardAlpha" operator="out"/>
<feColorMatrix type="matrix" values="0 0 0 0 0 0 0 0 0 0 0 0 0 0 0 0 0 0 0.25 0"/>
<feBlend mode="normal" in2="BackgroundImageFix" result="effect1_dropShadow_582_669"/>
<feBlend mode="normal" in="SourceGraphic" in2="effect1_dropShadow_582_669" result="shape"/>
</filter>
</defs>
</svg>
