<svg width="88" height="75" viewBox="0 0 88 75" fill="none" xmlns="http://www.w3.org/2000/svg">
<path d="M71.3636 3.93355C74.2368 6.06672 76.2168 9.5123 77.0264 13.1204L77.3124 13.2287L86.3104 17.1701C86.813 17.3892 87.2391 17.7397 87.5384 18.1803C87.8377 18.621 87.9979 19.1334 88 19.6574V71.1827C87.9968 71.6107 87.8889 72.0322 87.6847 72.4141C87.4806 72.7959 87.1858 73.1279 86.8235 73.3838C86.4612 73.6397 86.0411 73.8126 85.5964 73.889C85.1516 73.9654 84.6942 73.9432 84.26 73.8241L59.3164 67.158L29.6604 74.899C29.1255 75.0391 28.5596 75.0333 28.028 74.8824L2.0856 67.5704C1.48597 67.4037 0.959155 67.0582 0.58342 66.5853C0.207684 66.1124 0.0030785 65.5374 0 64.9456L0 12.4954C0 10.6622 1.8832 9.34564 3.762 9.86227L28.8508 16.7826L41.602 13.087C41.778 13.037 41.9569 13.0023 42.1388 12.9829C42.6316 10.2497 44.0088 7.62494 46.3188 5.0668C49.06 2.02536 53.8692 0.242161 58.5552 0.0296766C63.4172 -0.19114 67.1308 0.792119 71.3592 3.92938M5.8652 16.1743V62.8999L27.2932 68.937V22.078L5.8652 16.1743ZM41.9848 18.7324L33.1584 21.2864V68.2787L55.4444 62.4708V48.7427C55.4444 47.2261 56.76 45.997 58.3792 45.997C59.9984 45.997 61.3096 47.2261 61.3096 48.7468V61.9833L82.1348 67.5454V21.4031L77.2068 19.2366C77.1247 19.6949 77.0176 20.1434 76.8856 20.5823C75.9324 23.7782 74.3269 26.7663 72.16 29.3775L61.2612 42.264C60.9742 42.6028 60.6077 42.8736 60.1909 43.0547C59.774 43.2358 59.3182 43.3224 58.8598 43.3074C58.4014 43.2924 57.953 43.1764 57.5503 42.9685C57.1476 42.7606 56.8016 42.4666 56.54 42.1098L46.354 28.1401C44.6703 25.9208 43.4955 23.9265 42.8296 22.1572C42.4109 21.0499 42.1275 19.9008 41.9848 18.7324ZM58.8368 5.52093C55.6424 5.66675 52.36 6.88333 50.798 8.61236C48.9192 10.6955 47.9952 12.6454 47.8104 14.6202C47.5904 16.9992 47.74 18.6783 48.3648 20.3406C48.8268 21.5697 49.7464 23.1279 51.1676 25.007L59.136 35.9311L67.54 25.9944C69.2366 23.9434 70.4936 21.5982 71.2404 19.0907C72.2964 15.591 70.7036 10.4497 67.7204 8.24156C64.6624 5.9709 62.3524 5.35844 58.8412 5.52093M59.4484 8.42488C64.306 8.42488 68.2484 12.1121 68.2484 16.6618C68.2333 18.8585 67.2981 20.9598 65.6481 22.5042C63.9982 24.0485 61.7684 24.9097 59.4484 24.8986C54.5908 24.8986 50.6484 21.2114 50.6484 16.6618C50.6484 12.1121 54.5908 8.42488 59.4484 8.42488ZM59.4484 13.9161C59.0653 13.9139 58.6855 13.9832 58.3307 14.12C57.9759 14.2568 57.653 14.4584 57.3805 14.7134C57.1079 14.9683 56.8911 15.2716 56.7424 15.6059C56.5936 15.9402 56.5159 16.299 56.5136 16.6618C56.5136 18.1783 57.8292 19.4074 59.4484 19.4074C59.8315 19.409 60.2112 19.3392 60.5658 19.2019C60.9204 19.0646 61.2429 18.8625 61.515 18.6072C61.7872 18.3518 62.0035 18.0482 62.1517 17.7137C62.2999 17.3792 62.3771 17.0203 62.3788 16.6576C62.373 15.9264 62.0613 15.2273 61.512 14.7134C60.9626 14.1995 60.2206 13.9128 59.4484 13.9161Z" fill="#D30909"/>
</svg>
