<svg width="35" height="27" viewBox="0 0 35 27" fill="none" xmlns="http://www.w3.org/2000/svg">
<path d="M10.9375 14.625C9.63956 14.625 8.37077 14.3281 7.29157 13.7718C6.21237 13.2155 5.37124 12.4249 4.87454 11.4998C4.37784 10.5748 4.24788 9.55689 4.5011 8.57486C4.75431 7.59283 5.37933 6.69078 6.29711 5.98277C7.21489 5.27477 8.38422 4.79261 9.65722 4.59728C10.9302 4.40194 12.2497 4.50219 13.4489 4.88536C14.648 5.26853 15.6729 5.9174 16.394 6.74993C17.1151 7.58245 17.5 8.56123 17.5 9.5625C17.4981 10.9047 16.806 12.1915 15.5758 13.1406C14.3455 14.0897 12.6774 14.6235 10.9375 14.625ZM10.9375 6.75C10.2164 6.75 9.51154 6.91495 8.91198 7.22399C8.31243 7.53303 7.84513 7.97229 7.56919 8.4862C7.29324 9.00012 7.22104 9.56562 7.36172 10.1112C7.5024 10.6568 7.84963 11.1579 8.35951 11.5512C8.86939 11.9446 9.51901 12.2124 10.2262 12.321C10.9335 12.4295 11.6665 12.3738 12.3327 12.1609C12.9989 11.948 13.5683 11.5876 13.9689 11.125C14.3695 10.6625 14.5833 10.1188 14.5833 9.5625C14.5833 8.81658 14.1992 8.10121 13.5155 7.57376C12.8318 7.04632 11.9044 6.75 10.9375 6.75ZM21.875 25.875V25.3125C21.875 23.0747 20.7227 20.9286 18.6715 19.3463C16.6203 17.7639 13.8383 16.875 10.9375 16.875C8.03669 16.875 5.2547 17.7639 3.20352 19.3463C1.15234 20.9286 0 23.0747 0 25.3125L0 25.875C0 26.1734 0.153645 26.4595 0.427136 26.6705C0.700627 26.8815 1.07156 27 1.45833 27C1.84511 27 2.21604 26.8815 2.48953 26.6705C2.76302 26.4595 2.91667 26.1734 2.91667 25.875V25.3125C2.91667 23.6715 3.76172 22.0977 5.26591 20.9373C6.77011 19.7769 8.81024 19.125 10.9375 19.125C13.0648 19.125 15.1049 19.7769 16.6091 20.9373C18.1133 22.0977 18.9583 23.6715 18.9583 25.3125V25.875C18.9583 26.1734 19.112 26.4595 19.3855 26.6705C19.659 26.8815 20.0299 27 20.4167 27C20.8034 27 21.1744 26.8815 21.4479 26.6705C21.7214 26.4595 21.875 26.1734 21.875 25.875ZM35 20.25C34.9999 18.7298 34.4295 17.242 33.3575 15.9664C32.2855 14.6908 30.7578 13.6818 28.9588 13.0612C27.1598 12.4406 25.1664 12.235 23.2192 12.4692C21.2721 12.7034 19.4544 13.3673 17.9856 14.3809C17.8409 14.479 17.7228 14.5982 17.6382 14.7317C17.5536 14.8652 17.5041 15.0104 17.4925 15.1587C17.481 15.307 17.5077 15.4557 17.5711 15.596C17.6345 15.7364 17.7333 15.8656 17.8618 15.9764C17.9903 16.0871 18.1459 16.1771 18.3198 16.2411C18.4936 16.3052 18.6822 16.342 18.8746 16.3495C19.067 16.357 19.2594 16.3351 19.4407 16.2849C19.6221 16.2347 19.7887 16.1573 19.931 16.0571C20.9802 15.3333 22.2786 14.8592 23.6693 14.6921C25.0601 14.525 26.4838 14.672 27.7687 15.1153C29.0536 15.5586 30.1447 16.2793 30.9103 17.1904C31.6759 18.1016 32.0833 19.1642 32.0833 20.25C32.0833 20.5484 32.237 20.8345 32.5105 21.0455C32.784 21.2565 33.1549 21.375 33.5417 21.375C33.9284 21.375 34.2994 21.2565 34.5729 21.0455C34.8464 20.8345 35 20.5484 35 20.25ZM25.5208 10.125C24.2229 10.125 22.9541 9.82809 21.8749 9.27182C20.7957 8.71554 19.9546 7.92489 19.4579 6.99984C18.9612 6.07479 18.8312 5.05689 19.0844 4.07486C19.3376 3.09283 19.9627 2.19078 20.8804 1.48277C21.7982 0.774771 22.9676 0.292614 24.2406 0.0972768C25.5136 -0.0980609 26.8331 0.00219351 28.0322 0.385362C29.2313 0.768531 30.2563 1.4174 30.9774 2.24993C31.6985 3.08245 32.0833 4.06123 32.0833 5.0625C32.0814 6.4047 31.3894 7.6915 30.1591 8.64058C28.9288 9.58966 27.2607 10.1235 25.5208 10.125ZM25.5208 2.25C24.7998 2.25 24.0949 2.41495 23.4953 2.72399C22.8958 3.03303 22.4285 3.47229 22.1525 3.9862C21.8766 4.50012 21.8044 5.06562 21.9451 5.61119C22.0857 6.15676 22.433 6.6579 22.9428 7.05124C23.4527 7.44457 24.1023 7.71244 24.8096 7.82096C25.5168 7.92948 26.2498 7.87378 26.916 7.66091C27.5822 7.44804 28.1516 7.08756 28.5522 6.62504C28.9528 6.16253 29.1667 5.61876 29.1667 5.0625C29.1667 4.31658 28.7826 3.60121 28.0988 3.07376C27.4151 2.54632 26.4878 2.25 25.5208 2.25Z" fill="black"/>
</svg>
