<svg width="53" height="48" viewBox="0 0 53 48" fill="none" xmlns="http://www.w3.org/2000/svg">
<path d="M0 1.5C0 1.10218 0.174497 0.720644 0.485104 0.43934C0.795712 0.158035 1.21699 0 1.65625 0L11.5938 0C12.033 0 12.4543 0.158035 12.7649 0.43934C13.0755 0.720644 13.25 1.10218 13.25 1.5C13.25 1.89782 13.0755 2.27936 12.7649 2.56066C12.4543 2.84196 12.033 3 11.5938 3H3.3125V10.5C3.3125 10.8978 3.138 11.2794 2.8274 11.5607C2.51679 11.842 2.09551 12 1.65625 12C1.21699 12 0.795712 11.842 0.485104 11.5607C0.174497 11.2794 0 10.8978 0 10.5V1.5ZM39.75 1.5C39.75 1.10218 39.9245 0.720644 40.2351 0.43934C40.5457 0.158035 40.967 0 41.4062 0L51.3438 0C51.783 0 52.2043 0.158035 52.5149 0.43934C52.8255 0.720644 53 1.10218 53 1.5V10.5C53 10.8978 52.8255 11.2794 52.5149 11.5607C52.2043 11.842 51.783 12 51.3438 12C50.9045 12 50.4832 11.842 50.1726 11.5607C49.862 11.2794 49.6875 10.8978 49.6875 10.5V3H41.4062C40.967 3 40.5457 2.84196 40.2351 2.56066C39.9245 2.27936 39.75 1.89782 39.75 1.5ZM1.65625 36C2.09551 36 2.51679 36.158 2.8274 36.4393C3.138 36.7206 3.3125 37.1022 3.3125 37.5V45H11.5938C12.033 45 12.4543 45.158 12.7649 45.4393C13.0755 45.7206 13.25 46.1022 13.25 46.5C13.25 46.8978 13.0755 47.2794 12.7649 47.5607C12.4543 47.842 12.033 48 11.5938 48H1.65625C1.21699 48 0.795712 47.842 0.485104 47.5607C0.174497 47.2794 0 46.8978 0 46.5V37.5C0 37.1022 0.174497 36.7206 0.485104 36.4393C0.795712 36.158 1.21699 36 1.65625 36ZM51.3438 36C51.783 36 52.2043 36.158 52.5149 36.4393C52.8255 36.7206 53 37.1022 53 37.5V46.5C53 46.8978 52.8255 47.2794 52.5149 47.5607C52.2043 47.842 51.783 48 51.3438 48H41.4062C40.967 48 40.5457 47.842 40.2351 47.5607C39.9245 47.2794 39.75 46.8978 39.75 46.5C39.75 46.1022 39.9245 45.7206 40.2351 45.4393C40.5457 45.158 40.967 45 41.4062 45H49.6875V37.5C49.6875 37.1022 49.862 36.7206 50.1726 36.4393C50.4832 36.158 50.9045 36 51.3438 36ZM13.25 12H16.5625V15H13.25V12Z" fill="black"/>
<path d="M23.1875 6H6.625V21H23.1875V6ZM9.9375 9H19.875V18H9.9375V9ZM16.5625 33H13.25V36H16.5625V33Z" fill="black"/>
<path d="M23.1875 27H6.625V42H23.1875V27ZM9.9375 30H19.875V39H9.9375V30ZM36.4375 12H39.75V15H36.4375V12Z" fill="black"/>
<path d="M29.8125 6H46.375V21H29.8125V6ZM33.125 9V18H43.0625V9H33.125ZM26.5 24V30H29.8125V33H26.5V36H33.125V30H36.4375V36H39.75V33H46.375V30H36.4375V24H26.5ZM33.125 30H29.8125V27H33.125V30ZM46.375 36H43.0625V39H36.4375V42H46.375V36ZM33.125 42V39H26.5V42H33.125Z" fill="black"/>
<path d="M39.75 27H46.375V24H39.75V27Z" fill="black"/>
</svg>
