<svg width="43" height="40" viewBox="0 0 43 40" fill="none" xmlns="http://www.w3.org/2000/svg">
<path fill-rule="evenodd" clip-rule="evenodd" d="M0 1.66667C0 1.22464 0.188765 0.800716 0.524767 0.488156C0.86077 0.175595 1.31649 0 1.79167 0H14.3333V3.33333H3.58333V13.3333H0V1.66667ZM39.4167 3.33333H28.6667V0H41.2083C41.6835 0 42.1392 0.175595 42.4752 0.488156C42.8112 0.800716 43 1.22464 43 1.66667V13.3333H39.4167V3.33333ZM43 21.6667H0V18.3333H43V21.6667ZM3.58333 36.6667V26.6667H0V38.3333C0 38.7754 0.188765 39.1993 0.524767 39.5118C0.86077 39.8244 1.31649 40 1.79167 40H14.3333V36.6667H3.58333ZM39.4167 36.6667V26.6667H43V38.3333C43 38.7754 42.8112 39.1993 42.4752 39.5118C42.1392 39.8244 41.6835 40 41.2083 40H28.6667V36.6667H39.4167Z" fill="black"/>
</svg>
