<svg width="21" height="22" viewBox="0 0 21 22" fill="none" xmlns="http://www.w3.org/2000/svg">
<path d="M20.7546 20.4478L15.536 14.9807C16.9581 13.1586 17.6573 10.8335 17.489 8.48647C17.3207 6.13941 16.2977 3.94992 14.6316 2.37087C12.9656 0.791825 10.7839 -0.0559616 8.53793 0.00286919C6.29194 0.0617 4.15346 1.02265 2.56481 2.68695C0.976163 4.35124 0.0588955 6.59156 0.00273877 8.9445C-0.0534179 11.2974 0.755833 13.583 2.2631 15.3284C3.77037 17.0738 5.86034 18.1455 8.10072 18.3218C10.3411 18.4982 12.5605 17.7656 14.2998 16.2758L19.5183 21.7429C19.6832 21.9097 19.9041 22.0021 20.1333 22C20.3626 21.9979 20.5818 21.9016 20.7439 21.7317C20.906 21.5619 20.998 21.3322 21 21.092C21.002 20.8519 20.9138 20.6205 20.7546 20.4478ZM8.7708 16.5158C7.38747 16.5158 6.0352 16.086 4.885 15.2809C3.7348 14.4758 2.83833 13.3314 2.30895 11.9925C1.77957 10.6536 1.64107 9.18033 1.91094 7.75897C2.18081 6.33761 2.84695 5.03201 3.82512 4.00727C4.80328 2.98252 6.04954 2.28466 7.40629 2.00194C8.76304 1.71921 10.1694 1.86432 11.4474 2.4189C12.7254 2.97349 13.8178 3.91265 14.5863 5.11762C15.3548 6.32259 15.7651 7.73925 15.7651 9.18846C15.763 11.1311 15.0254 12.9936 13.7142 14.3672C12.403 15.7409 10.6252 16.5136 8.7708 16.5158Z" fill="#84A9EA"/>
</svg>
