<svg width="37" height="38" viewBox="0 0 37 38" fill="none" xmlns="http://www.w3.org/2000/svg">
<path d="M12.3056 30.5568C12.2115 30.9098 11.9017 31.141 11.5625 31.141C4.625 29.2917 0 22.9615 0 15.8333C0 7.10283 6.91592 0 15.4167 0C23.0464 0 29.4505 5.60817 30.6422 13.3348C30.7085 13.7655 30.4202 14.1724 30.0008 14.2405C29.5877 14.3054 29.1868 14.0157 29.119 13.5818C28.0475 6.62942 22.2832 1.58333 15.4167 1.58333C7.76538 1.58333 1.54167 7.97683 1.54167 15.8333C1.54167 22.249 5.74579 27.9031 11.7645 29.5862C12.1761 29.7002 12.4166 30.1372 12.3056 30.5568ZM37 27.7083V34.0417C37 36.2251 35.2718 38 33.1458 38H22.5407C19.6115 38 17.0678 35.8577 16.4928 32.908L15.5215 29.4975C15.2332 28.0313 15.5832 26.5953 16.465 25.4901C17.3468 24.3849 18.6511 23.75 20.0417 23.75H24.9488L24.0546 18.5804C24.0423 18.4775 24.0253 17.7001 24.0438 17.6336C24.2304 16.9306 24.6636 16.3764 25.2648 16.074C25.8707 15.7684 26.5722 15.7589 27.2382 16.0423C27.6313 16.2102 28.0136 16.625 28.2896 17.1807L31.6705 23.7484H33.1443C35.2702 23.7484 36.9985 25.5233 36.9985 27.7068L37 27.7083ZM30.8981 25.1164C30.653 24.9708 30.4479 24.7586 30.3092 24.491L26.9221 17.9123C26.7633 17.5908 26.62 17.4911 26.6184 17.4911C26.398 17.3977 26.1482 17.3945 25.9432 17.4958C25.7736 17.5813 25.6425 17.7397 25.5639 17.9471L25.5855 18.4078L26.4673 23.4745C26.549 23.9353 26.4272 24.4071 26.1328 24.7665C25.8352 25.1291 25.4051 25.3333 24.9488 25.3333H20.0417C19.1136 25.3333 18.2456 25.7561 17.6567 26.4923C17.0678 27.2286 16.835 28.1881 17.0169 29.1207L17.9882 32.5312C18.4337 34.808 20.3423 36.4151 22.5392 36.4151H30.8364L30.8965 25.1148L30.8981 25.1164ZM35.4583 27.7083C35.4583 26.3989 34.4208 25.3333 33.1458 25.3333H32.4382L32.3796 36.4167H33.1458C34.4208 36.4167 35.4583 35.3511 35.4583 34.0417V27.7083ZM23.1944 11.875C23.4965 11.5678 23.4996 11.0659 23.2005 10.7556C22.903 10.4437 22.4143 10.4421 22.1106 10.7493L15.4197 17.5481C14.558 18.4237 13.1597 18.4221 12.3025 17.5481L9.02183 14.2183C8.71813 13.9096 8.22942 13.9159 7.93187 14.2247C7.63279 14.5366 7.63588 15.0369 7.93804 15.3441L11.2187 18.6738C11.9479 19.4132 12.9038 19.7838 13.8611 19.7838C14.8185 19.7838 15.7759 19.4132 16.5051 18.6723L23.1959 11.8734L23.1944 11.875Z" fill="black"/>
</svg>
