<svg width="38" height="32" viewBox="0 0 38 32" fill="none" xmlns="http://www.w3.org/2000/svg">
<path d="M36.4159 14.6663C35.9957 14.6663 35.5928 14.8068 35.2957 15.0568C34.9986 15.3069 34.8317 15.646 34.8317 15.9996C34.8446 19.0999 33.5778 22.1077 31.2477 24.5089C28.9176 26.9101 25.6691 28.5557 22.0572 29.1644C18.4453 29.773 14.6944 29.3069 11.4456 27.8458C8.19679 26.3847 5.65175 24.0192 4.24551 21.1537C2.83927 18.2882 2.65913 15.1006 3.73588 12.1357C4.81262 9.17081 7.07941 6.61271 10.1488 4.89864C13.2182 3.18457 16.8996 2.42094 20.5638 2.73829C24.228 3.05564 27.6475 4.43426 30.2378 6.6385C30.1857 6.65046 30.1328 6.65981 30.0794 6.6665H25.327C24.9069 6.6665 24.5039 6.80697 24.2069 7.05701C23.9098 7.30706 23.7429 7.64619 23.7429 7.9998C23.7429 8.35341 23.9098 8.69254 24.2069 8.94258C24.5039 9.19263 24.9069 9.3331 25.327 9.3331H30.0794C31.3398 9.3331 32.5486 8.91168 33.4398 8.16155C34.3311 7.41143 34.8317 6.39404 34.8317 5.3332V1.3333C34.8317 0.979687 34.6648 0.640557 34.3678 0.390514C34.0707 0.140472 33.6678 0 33.2476 0C32.8275 0 32.4246 0.140472 32.1275 0.390514C31.8304 0.640557 31.6635 0.979687 31.6635 1.3333V4.08656C28.4201 1.646 24.2798 0.216216 19.9344 0.0361359C15.589 -0.143945 11.3019 0.936586 7.78927 3.09717C4.27669 5.25775 1.75147 8.3675 0.635598 11.9068C-0.480275 15.446 -0.119208 19.2004 1.65846 22.5426C3.43614 25.8847 6.52272 28.6121 10.4025 30.2691C14.2822 31.9261 18.72 32.4122 22.9744 31.6462C27.2288 30.8802 31.042 28.9086 33.7768 26.0608C36.5116 23.2129 38.0024 19.6614 38 15.9996C38 15.646 37.8331 15.3069 37.536 15.0568C37.2389 14.8068 36.836 14.6663 36.4159 14.6663Z" fill="black"/>
<path d="M19.6039 8C19.1786 8 18.7706 8.13713 18.4698 8.38123C18.169 8.62533 18 8.95639 18 9.3016V15.8096C18.0001 16.1548 18.1691 16.4858 18.47 16.7298L23.2818 20.6346C23.5843 20.8717 23.9894 21.0029 24.41 21C24.8305 20.997 25.2328 20.8601 25.5302 20.6188C25.8276 20.3774 25.9963 20.051 25.9999 19.7097C26.0036 19.3684 25.8419 19.0396 25.5498 18.7942L21.2079 15.2707V9.3016C21.2079 8.95639 21.0389 8.62533 20.7381 8.38123C20.4373 8.13713 20.0293 8 19.6039 8Z" fill="black"/>
</svg>
