<svg width="340" height="277" viewBox="0 0 340 277" fill="none" xmlns="http://www.w3.org/2000/svg">
<g filter="url(#filter0_d_220_6)">
<path fill-rule="evenodd" clip-rule="evenodd" d="M176.268 7.13367C205.041 12.1776 226.711 28.706 251.618 41.7037C278.908 55.9447 314.677 62.6562 328.807 86.7349C343.531 111.825 332.07 140.952 325.973 168.406C318.878 200.353 322.185 239.708 290.592 258.814C258.999 277.921 214.531 265.489 176.268 258.944C144.795 253.559 119.207 238.562 91.6734 224.786C60.9132 209.394 17.3904 202.276 6.28061 173.887C-4.82916 145.498 27.6472 119.18 39.2944 90.9408C50.6735 63.3512 45.415 27.7929 73.6652 10.5081C101.927 -6.78382 141.936 1.11518 176.268 7.13367Z" fill="#A6CAFA" fill-opacity="0.42" shape-rendering="crispEdges"/>
</g>
<g filter="url(#filter1_d_220_6)">
<path d="M164.528 93.0925C166.519 93.0925 168.132 94.7058 168.132 96.696V127.882C168.132 129.872 166.519 131.486 164.528 131.486C162.538 131.486 160.925 129.872 160.925 127.882V96.696C160.925 94.7059 162.538 93.0926 164.528 93.0925ZM164.581 79.0701C165.904 79.0701 167.057 79.4908 168.012 80.3367H168.013C168.988 81.1853 169.5 82.2364 169.5 83.4656C169.5 84.6946 168.988 85.7449 168.013 86.5935L168.012 86.5925C167.057 87.4387 165.904 87.8601 164.581 87.8601C163.256 87.8601 162.095 87.4388 161.123 86.5935L161.119 86.5896C160.162 85.7398 159.662 84.6907 159.662 83.4656C159.662 82.2402 160.162 81.1905 161.119 80.3406L161.123 80.3367C162.095 79.4914 163.256 79.0701 164.581 79.0701Z" fill="black" stroke="black"/>
<path d="M135.78 92.1975C138.369 92.1975 140.659 92.737 142.634 93.8333C144.622 94.9206 146.161 96.576 147.252 98.7747H147.251C148.345 100.964 148.878 103.704 148.878 106.969V128.127C148.878 129.982 147.374 131.486 145.52 131.486C143.665 131.486 142.161 129.982 142.161 128.127V107.364C142.161 104.478 141.424 102.3 140.015 100.762L140.014 100.76C138.607 99.2094 136.667 98.4143 134.133 98.4143C132.385 98.4144 130.839 98.7969 129.484 99.554L129.485 99.5549C128.153 100.309 127.095 101.41 126.312 102.874C125.536 104.327 125.137 106.113 125.137 108.249V128.127C125.137 129.982 123.632 131.486 121.777 131.486C119.923 131.485 118.419 129.982 118.419 128.127V95.9514C118.419 94.15 119.879 92.6898 121.681 92.6897C123.482 92.6897 124.942 94.15 124.942 95.9514V97.9631C125.836 96.3797 127.066 95.074 128.626 94.051C130.506 92.8017 132.904 92.1976 135.78 92.1975Z" fill="black" stroke="black"/>
<path d="M103.417 82.5C105.672 82.5 107.5 84.3281 107.5 86.583V114.232C107.5 117.563 106.512 120.548 104.539 123.17L104.538 123.169C102.588 125.77 99.8439 127.809 96.3301 129.296H96.3291C92.807 130.77 88.6931 131.5 84 131.5C79.3069 131.5 75.193 130.77 71.6709 129.296H71.6699C68.1562 127.809 65.4016 125.771 63.4326 123.171L63.4307 123.168C61.4773 120.546 60.5 117.562 60.5 114.232V86.583C60.5 84.3281 62.3281 82.5 64.583 82.5C66.8379 82.5001 68.666 84.3281 68.666 86.583V113.771C68.666 115.976 69.2727 117.925 70.4814 119.633H70.4805C71.6902 121.327 73.4222 122.678 75.7012 123.677L76.1367 123.854C78.341 124.717 80.9582 125.156 84 125.156C87.2433 125.156 90.0039 124.658 92.2959 123.678L92.7207 123.486C94.8111 122.508 96.4029 121.221 97.5186 119.634V119.633C98.7273 117.925 99.334 115.976 99.334 113.771V86.583C99.334 84.3281 101.162 82.5001 103.417 82.5Z" fill="black" stroke="black"/>
</g>
<g filter="url(#filter2_d_220_6)">
<path d="M59 64C59 61.8074 59.5771 59.9259 60.7313 58.3556C61.8855 56.7852 63.2684 56 64.88 56C66.4916 56 67.8745 56.7852 69.0287 58.3556C70.1829 59.9259 70.76 61.8074 70.76 64C70.76 66.1926 70.1829 68.0741 69.0287 69.6444C67.8745 71.2148 66.4916 72 64.88 72C63.8129 72 62.8329 71.6296 61.94 70.8889C61.0471 70.1778 60.3284 69.2148 59.784 68C59.2613 66.8148 59 65.4815 59 64ZM96.24 64C96.24 61.8074 96.8171 59.9259 97.9713 58.3556C99.1256 56.7852 100.508 56 102.12 56C103.732 56 105.114 56.7852 106.269 58.3556C107.423 59.9259 108 61.8074 108 64C108 66.1926 107.423 68.0741 106.269 69.6444C105.114 71.2148 103.732 72 102.12 72C101.053 72 100.073 71.6296 99.18 70.8889C98.2871 70.1778 97.5684 69.2148 97.024 68C96.5013 66.8148 96.24 65.4815 96.24 64Z" fill="black"/>
</g>
<g filter="url(#filter3_d_220_6)">
<path d="M270.449 152.308C272.163 152.308 273.553 153.697 273.553 155.411V186.629L287.328 168.3C287.907 167.529 288.816 167.075 289.78 167.075C292.313 167.075 293.755 169.973 292.226 171.993L280.8 187.096C281.43 187.35 281.994 187.802 282.386 188.448L293.824 207.324C295.169 209.543 293.572 212.379 290.977 212.379C289.811 212.379 288.73 211.77 288.127 210.771L276.717 191.878C276.679 191.816 276.645 191.753 276.612 191.689C275.699 192.445 274.487 192.466 273.553 191.956V209.275C273.553 210.989 272.163 212.379 270.449 212.379C268.735 212.379 267.346 210.989 267.346 209.275V155.411L267.349 155.252C267.432 153.612 268.788 152.308 270.449 152.308Z" fill="black" stroke="black"/>
<path d="M246.818 166.499C249.286 166.499 251.524 167.097 253.519 168.301C255.508 169.501 257.132 171.179 258.392 173.322C259.185 174.67 259.786 176.155 260.198 177.775C260.686 179.693 259.109 181.343 257.24 181.343C255.698 181.343 254.473 180.239 253.934 178.913C253.479 177.792 252.835 176.757 252.002 175.808L251.999 175.804C250.751 174.351 249.072 173.614 246.907 173.614C245.003 173.614 243.341 174.258 241.902 175.561V175.562C240.466 176.856 239.321 178.707 238.488 181.149C237.671 183.566 237.256 186.422 237.256 189.727C237.256 193.11 237.663 196.036 238.466 198.512H238.467C239.287 200.992 240.424 202.882 241.861 204.214L242.133 204.453C243.51 205.612 245.094 206.187 246.907 206.187C248.181 206.187 249.324 205.898 250.347 205.328C251.374 204.755 252.251 203.928 252.976 202.835C253.361 202.254 253.69 201.609 253.959 200.896C254.468 199.553 255.693 198.458 257.228 198.458C259.102 198.458 260.676 200.118 260.171 202.038C259.776 203.543 259.214 204.953 258.486 206.265C257.301 208.41 255.723 210.127 253.753 211.405L253.752 211.406C251.78 212.675 249.492 213.302 246.907 213.302C243.617 213.302 240.764 212.283 238.374 210.24C236 208.211 234.191 205.431 232.932 201.924C231.674 198.418 231.049 194.427 231.049 189.959C231.049 185.413 231.689 181.382 232.978 177.874V177.873C234.281 174.35 236.103 171.569 238.461 169.56C240.848 167.52 243.641 166.499 246.818 166.499Z" fill="black" stroke="black"/>
<path d="M210.654 166.499C212.494 166.499 214.307 166.9 216.088 167.696C217.891 168.502 219.517 169.805 220.968 171.584C222.435 173.361 223.587 175.696 224.438 178.567C225.295 181.454 225.716 184.986 225.716 189.151C225.716 191.02 224.202 192.535 222.333 192.535H202.034C201.716 192.535 201.408 192.491 201.116 192.41C201.217 195.149 201.644 197.49 202.384 199.443C203.256 201.682 204.448 203.357 205.946 204.5L206.229 204.704C207.661 205.691 209.307 206.187 211.183 206.187C212.489 206.187 213.654 205.949 214.684 205.482C215.726 204.998 216.627 204.279 217.389 203.319C217.649 202.985 217.89 202.622 218.112 202.229C218.973 200.705 220.798 199.651 222.584 200.306C224.1 200.863 225.055 202.514 224.437 204.106C223.917 205.446 223.245 206.675 222.42 207.793L222.418 207.795C221.122 209.528 219.519 210.886 217.612 211.863L217.608 211.865C215.692 212.827 213.547 213.302 211.183 213.302C207.814 213.302 204.885 212.327 202.422 210.367L202.419 210.365C199.983 208.395 198.12 205.661 196.815 202.191L196.814 202.188C195.524 198.698 194.885 194.657 194.885 190.074C194.885 185.49 195.524 181.43 196.813 177.903L196.814 177.902C198.116 174.36 199.939 171.57 202.297 169.56C204.684 167.52 207.477 166.499 210.654 166.499ZM210.654 173.614C208.699 173.614 207.023 174.244 205.602 175.506L205.601 175.507C204.17 176.773 203.058 178.433 202.274 180.502C201.646 182.158 201.268 183.913 201.141 185.768C201.426 185.692 201.725 185.651 202.034 185.651H213.092C214.844 185.651 216.47 184.911 217.491 183.787C218.501 182.674 218.915 181.197 218.308 179.641L218.307 179.637C217.583 177.744 216.556 176.274 215.237 175.204L215.235 175.202C213.947 174.145 212.428 173.614 210.654 173.614Z" fill="black" stroke="black"/>
<path d="M162.868 152.308C164.582 152.308 165.971 153.697 165.971 155.411V173.001C166.762 171.251 167.823 169.801 169.163 168.665C170.879 167.205 173.138 166.499 175.886 166.499C178.286 166.499 180.409 167.13 182.236 168.403C184.073 169.665 185.474 171.593 186.456 174.142L186.638 174.625C187.517 177.083 187.948 180.123 187.948 183.728V209.275C187.948 210.989 186.558 212.379 184.844 212.379C183.13 212.379 181.741 210.989 181.741 209.275V184.189C181.741 180.728 181.052 178.126 179.74 176.32L179.737 176.316C178.451 174.511 176.686 173.613 174.385 173.613C172.777 173.613 171.348 174.056 170.081 174.938L170.08 174.937C168.833 175.815 167.828 177.109 167.078 178.846C166.346 180.575 165.971 182.698 165.971 185.228V209.275C165.971 210.989 164.582 212.379 162.868 212.379C161.154 212.379 159.764 210.989 159.764 209.275V155.411L159.768 155.252C159.851 153.612 161.207 152.308 162.868 152.308Z" fill="black" stroke="black"/>
<path d="M133.946 151.5C136.291 151.5 138.499 151.945 140.565 152.839H140.564C142.644 153.732 144.514 155.039 146.175 156.756L146.483 157.079C148.01 158.716 149.291 160.676 150.331 162.953C151.052 164.52 151.627 166.228 152.055 168.073C152.51 170.035 150.939 171.768 148.995 171.768C147.39 171.767 146.093 170.595 145.686 169.113C145.381 168.005 144.989 166.993 144.513 166.075L144.512 166.072C143.741 164.561 142.804 163.303 141.705 162.29L141.699 162.284C140.611 161.25 139.409 160.478 138.09 159.965C136.766 159.449 135.385 159.191 133.946 159.191C131.331 159.191 128.963 160.052 126.826 161.791C124.707 163.527 122.994 166.107 121.706 169.567L121.705 169.566C120.437 173.014 119.796 177.268 119.796 182.344C119.796 187.419 120.437 191.673 121.705 195.12H121.706C122.994 198.581 124.707 201.16 126.826 202.896L127.229 203.212C129.26 204.739 131.494 205.495 133.946 205.495C135.385 205.495 136.766 205.237 138.09 204.722C139.411 204.207 140.615 203.444 141.703 202.428C142.803 201.395 143.741 200.126 144.512 198.615V198.614C144.988 197.686 145.379 196.671 145.684 195.569C146.093 194.089 147.388 192.919 148.992 192.919C150.937 192.919 152.508 194.654 152.051 196.616C151.623 198.452 151.051 200.158 150.332 201.732C149.223 204.162 147.839 206.239 146.177 207.958L146.175 207.96C144.514 209.658 142.643 210.956 140.564 211.849L140.563 211.848C138.498 212.741 136.291 213.187 133.946 213.187C129.976 213.186 126.437 211.916 123.348 209.382C120.264 206.853 117.859 203.272 116.114 198.673C114.367 194.065 113.5 188.618 113.5 182.344C113.5 176.069 114.367 170.622 116.114 166.014C117.859 161.414 120.264 157.835 123.348 155.306C126.437 152.772 129.976 151.5 133.946 151.5Z" fill="black" stroke="black"/>
</g>
<g clip-path="url(#clip0_220_6)">
<path d="M299.125 87.9611V132.626H222.799C218.759 132.831 214.829 130.676 211.873 126.634C208.917 122.591 207.177 116.993 207.037 111.07C206.896 105.147 208.366 99.3848 211.124 95.0511C213.881 90.7173 217.7 88.167 221.74 87.9611C222.093 87.943 222.446 87.943 222.799 87.9611H299.125Z" fill="#FFF3D7"/>
<path d="M301 132.282C301 132.738 300.876 133.175 300.656 133.497C300.437 133.82 300.138 134.001 299.827 134.001H221.44C217.183 134.001 213.099 131.521 210.089 127.107C207.078 122.694 205.387 116.708 205.387 110.466C205.387 104.224 207.078 98.2376 210.089 93.8239C213.099 89.4103 217.183 86.9307 221.44 86.9307H299.829C299.986 86.9228 300.143 86.9615 300.29 87.0443C300.436 87.1271 300.57 87.2524 300.683 87.4127C300.797 87.573 300.886 87.765 300.948 87.9773C301.009 88.1896 301.041 88.4179 301.041 88.6485C301.041 88.8792 301.009 89.1074 300.948 89.3198C300.886 89.5321 300.797 89.7241 300.683 89.8844C300.57 90.0447 300.436 90.17 300.29 90.2528C300.143 90.3356 299.986 90.3742 299.829 90.3664H221.44C217.812 90.384 214.337 92.5093 211.775 96.2767C209.214 100.044 207.776 105.146 207.776 110.465C207.776 115.784 209.214 120.887 211.775 124.654C214.337 128.421 217.812 130.547 221.44 130.564H299.829C300.139 130.565 300.437 130.746 300.657 131.068C300.876 131.39 301 131.826 301 132.282Z" fill="#84A9EA"/>
<path d="M299.126 98.2683H217.105C217.043 98.2691 216.983 98.2337 216.939 98.1699C216.895 98.1061 216.869 98.019 216.869 97.9279C216.868 97.8368 216.892 97.7491 216.936 97.6841C216.979 97.619 217.039 97.582 217.101 97.5812H299.126C299.188 97.5812 299.248 97.6174 299.292 97.6818C299.335 97.7462 299.36 97.8336 299.36 97.9247C299.36 98.0158 299.335 98.1032 299.292 98.1677C299.248 98.2321 299.188 98.2683 299.126 98.2683Z" fill="black"/>
<path d="M299.126 106.514H217.105C217.075 106.515 217.044 106.506 217.015 106.489C216.987 106.472 216.961 106.447 216.939 106.416C216.917 106.384 216.899 106.347 216.887 106.305C216.875 106.263 216.869 106.219 216.869 106.174C216.868 106.129 216.874 106.084 216.886 106.042C216.897 106 216.914 105.962 216.936 105.93C216.957 105.898 216.983 105.872 217.011 105.854C217.04 105.837 217.07 105.827 217.101 105.827H299.126C299.188 105.827 299.248 105.863 299.292 105.928C299.335 105.992 299.36 106.079 299.36 106.171C299.36 106.262 299.335 106.349 299.292 106.414C299.248 106.478 299.188 106.514 299.126 106.514Z" fill="black"/>
<path d="M299.126 114.759H217.105C217.043 114.76 216.983 114.725 216.939 114.661C216.895 114.597 216.869 114.51 216.869 114.419C216.868 114.328 216.892 114.24 216.936 114.175C216.979 114.11 217.039 114.073 217.101 114.072H299.126C299.188 114.072 299.248 114.109 299.292 114.173C299.335 114.237 299.36 114.325 299.36 114.416C299.36 114.507 299.335 114.594 299.292 114.659C299.248 114.723 299.188 114.759 299.126 114.759Z" fill="black"/>
<path d="M299.126 123.005H217.105C217.075 123.006 217.044 122.997 217.015 122.98C216.987 122.964 216.961 122.939 216.939 122.907C216.917 122.875 216.899 122.838 216.887 122.796C216.875 122.755 216.869 122.71 216.869 122.665C216.868 122.62 216.874 122.575 216.886 122.533C216.897 122.491 216.914 122.453 216.936 122.421C216.957 122.389 216.983 122.363 217.011 122.346C217.04 122.328 217.07 122.319 217.101 122.318H299.126C299.188 122.318 299.248 122.354 299.292 122.419C299.335 122.483 299.36 122.571 299.36 122.662C299.36 122.753 299.335 122.84 299.292 122.905C299.248 122.969 299.188 123.005 299.126 123.005Z" fill="black"/>
<path d="M284.737 40.9048V85.569H208.411C204.371 85.775 200.441 83.6198 197.485 79.5774C194.529 75.535 192.789 69.9365 192.649 64.0137C192.508 58.0908 193.978 52.3287 196.736 47.9949C199.493 43.6611 203.311 41.1106 207.351 40.9045C207.704 40.8865 208.058 40.8865 208.411 40.9045L284.737 40.9048Z" fill="#FFF3D7"/>
<path d="M286.612 85.2255C286.612 85.6814 286.489 86.1186 286.269 86.4409C286.049 86.7633 285.751 86.9444 285.44 86.9444H207.053C202.795 86.9444 198.712 84.4648 195.702 80.0511C192.691 75.6375 191 69.6513 191 63.4094C191 57.1675 192.691 51.1813 195.702 46.7676C198.712 42.354 202.795 39.8744 207.053 39.8744H285.441C285.598 39.8666 285.755 39.9052 285.902 39.988C286.049 40.0708 286.183 40.1961 286.296 40.3564C286.409 40.5167 286.499 40.7087 286.56 40.921C286.622 41.1333 286.653 41.3616 286.653 41.5923C286.653 41.8229 286.622 42.0512 286.56 42.2635C286.499 42.4758 286.409 42.6679 286.296 42.8281C286.183 42.9884 286.049 43.1137 285.902 43.1965C285.755 43.2793 285.598 43.3179 285.441 43.3101H207.053C203.425 43.3277 199.949 45.4531 197.388 49.2204C194.827 52.9878 193.389 58.09 193.389 63.4091C193.389 68.7281 194.827 73.8303 197.388 77.5977C199.949 81.3651 203.425 83.4904 207.053 83.508H285.441C285.752 83.508 286.05 83.6891 286.27 84.0114C286.49 84.3338 286.613 84.771 286.613 85.2268L286.612 85.2255Z" fill="#84A9EA"/>
<path d="M284.737 51.2118H202.717C202.686 51.2122 202.655 51.2037 202.627 51.1868C202.598 51.1699 202.572 51.145 202.55 51.1134C202.506 51.0496 202.481 50.9625 202.48 50.8714C202.48 50.7803 202.504 50.6926 202.547 50.6275C202.591 50.5625 202.65 50.5255 202.712 50.5247H284.737C284.799 50.5247 284.859 50.5608 284.903 50.6253C284.947 50.6897 284.972 50.7771 284.972 50.8682C284.972 50.9593 284.947 51.0467 284.903 51.1111C284.859 51.1756 284.799 51.2118 284.737 51.2118Z" fill="black"/>
<path d="M284.737 59.4574H202.717C202.686 59.4578 202.655 59.4493 202.627 59.4324C202.598 59.4156 202.572 59.3906 202.55 59.359C202.528 59.3274 202.511 59.2898 202.499 59.2482C202.487 59.2067 202.481 59.1621 202.48 59.117C202.48 59.0719 202.486 59.0271 202.497 58.9853C202.509 58.9435 202.526 58.9053 202.547 58.8731C202.569 58.841 202.595 58.8153 202.623 58.7976C202.651 58.78 202.682 58.7707 202.712 58.7703H284.737C284.768 58.7703 284.799 58.7792 284.827 58.7964C284.855 58.8137 284.881 58.839 284.903 58.8709C284.925 58.9028 284.942 58.9407 284.954 58.9823C284.966 59.024 284.972 59.0687 284.972 59.1138C284.972 59.1589 284.966 59.2036 284.954 59.2453C284.942 59.287 284.925 59.3248 284.903 59.3567C284.881 59.3886 284.855 59.4139 284.827 59.4312C284.799 59.4485 284.768 59.4574 284.737 59.4574Z" fill="black"/>
<path d="M284.737 67.703H202.717C202.686 67.7034 202.655 67.6949 202.627 67.678C202.598 67.6612 202.572 67.6362 202.55 67.6046C202.506 67.5408 202.481 67.4537 202.48 67.3626C202.48 67.2715 202.504 67.1838 202.547 67.1187C202.591 67.0537 202.65 67.0167 202.712 67.0159H284.737C284.799 67.0159 284.859 67.0521 284.903 67.1165C284.947 67.1809 284.972 67.2683 284.972 67.3594C284.972 67.4505 284.947 67.5379 284.903 67.6023C284.859 67.6668 284.799 67.703 284.737 67.703Z" fill="black"/>
<path d="M284.737 75.9488H202.717C202.655 75.9497 202.595 75.9143 202.55 75.8505C202.506 75.7866 202.481 75.6996 202.48 75.6085C202.48 75.5174 202.504 75.4296 202.547 75.3646C202.591 75.2996 202.65 75.2626 202.712 75.2617H284.737C284.799 75.2617 284.859 75.2979 284.903 75.3623C284.947 75.4268 284.972 75.5142 284.972 75.6053C284.972 75.6964 284.947 75.7838 284.903 75.8482C284.859 75.9126 284.799 75.9488 284.737 75.9488Z" fill="black"/>
<path d="M271.464 26.0046H236.689C236.359 26.0042 236.033 26.1153 235.738 26.3292L226.96 32.7711C226.672 32.9511 226.425 33.2516 226.252 33.6354C226.079 34.0192 225.987 34.4691 225.987 34.9293C225.987 35.3894 226.079 35.8394 226.252 36.2231C226.425 36.6069 226.672 36.9075 226.96 37.0874L235.737 43.5293C236.033 43.7432 236.359 43.8543 236.689 43.8539H271.464C271.943 43.8946 272.414 43.6568 272.774 43.1921C273.135 42.7275 273.356 42.0733 273.39 41.3713V28.4879C273.356 27.7858 273.135 27.1314 272.774 26.6666C272.414 26.2018 271.943 25.964 271.464 26.0046Z" fill="#090814"/>
<path d="M273.391 28.4883V41.372C273.357 42.0739 273.136 42.728 272.775 43.1925C272.415 43.6571 271.944 43.8947 271.465 43.8539H264.537V26.0044H271.465C271.944 25.9636 272.415 26.2015 272.776 26.6665C273.136 27.1314 273.357 27.786 273.391 28.4883Z" fill="#84A9EA"/>
</g>
<circle cx="40.5" cy="161.5" r="5.5" fill="#84A9EA"/>
<circle cx="211.5" cy="247.5" r="5.5" fill="#84A9EA"/>
<circle cx="84.5" cy="198.5" r="5.5" fill="#527EE3"/>
<circle cx="133.5" cy="34.5" r="5.5" fill="#527EE3"/>
<circle cx="100.5" cy="149.5" r="3.5" fill="white"/>
<circle cx="187.5" cy="133.5" r="3.5" fill="white"/>
<circle cx="283.5" cy="228.5" r="3.5" fill="white"/>
<defs>
<filter id="filter0_d_220_6" x="0" y="0" width="340" height="277" filterUnits="userSpaceOnUse" color-interpolation-filters="sRGB">
<feFlood flood-opacity="0" result="BackgroundImageFix"/>
<feColorMatrix in="SourceAlpha" type="matrix" values="0 0 0 0 0 0 0 0 0 0 0 0 0 0 0 0 0 0 127 0" result="hardAlpha"/>
<feOffset dy="4"/>
<feGaussianBlur stdDeviation="2"/>
<feComposite in2="hardAlpha" operator="out"/>
<feColorMatrix type="matrix" values="0 0 0 0 0 0 0 0 0 0 0 0 0 0 0 0 0 0 0.25 0"/>
<feBlend mode="normal" in2="BackgroundImageFix" result="effect1_dropShadow_220_6"/>
<feBlend mode="normal" in="SourceGraphic" in2="effect1_dropShadow_220_6" result="shape"/>
</filter>
<filter id="filter1_d_220_6" x="56" y="78.5701" width="118" height="61.4299" filterUnits="userSpaceOnUse" color-interpolation-filters="sRGB">
<feFlood flood-opacity="0" result="BackgroundImageFix"/>
<feColorMatrix in="SourceAlpha" type="matrix" values="0 0 0 0 0 0 0 0 0 0 0 0 0 0 0 0 0 0 127 0" result="hardAlpha"/>
<feOffset dy="4"/>
<feGaussianBlur stdDeviation="2"/>
<feComposite in2="hardAlpha" operator="out"/>
<feColorMatrix type="matrix" values="0 0 0 0 0 0 0 0 0 0 0 0 0 0 0 0 0 0 0.25 0"/>
<feBlend mode="normal" in2="BackgroundImageFix" result="effect1_dropShadow_220_6"/>
<feBlend mode="normal" in="SourceGraphic" in2="effect1_dropShadow_220_6" result="shape"/>
</filter>
<filter id="filter2_d_220_6" x="55" y="56" width="57" height="24" filterUnits="userSpaceOnUse" color-interpolation-filters="sRGB">
<feFlood flood-opacity="0" result="BackgroundImageFix"/>
<feColorMatrix in="SourceAlpha" type="matrix" values="0 0 0 0 0 0 0 0 0 0 0 0 0 0 0 0 0 0 127 0" result="hardAlpha"/>
<feOffset dy="4"/>
<feGaussianBlur stdDeviation="2"/>
<feComposite in2="hardAlpha" operator="out"/>
<feColorMatrix type="matrix" values="0 0 0 0 0 0 0 0 0 0 0 0 0 0 0 0 0 0 0.25 0"/>
<feBlend mode="normal" in2="BackgroundImageFix" result="effect1_dropShadow_220_6"/>
<feBlend mode="normal" in="SourceGraphic" in2="effect1_dropShadow_220_6" result="shape"/>
</filter>
<filter id="filter3_d_220_6" x="109" y="151" width="189.812" height="70.8024" filterUnits="userSpaceOnUse" color-interpolation-filters="sRGB">
<feFlood flood-opacity="0" result="BackgroundImageFix"/>
<feColorMatrix in="SourceAlpha" type="matrix" values="0 0 0 0 0 0 0 0 0 0 0 0 0 0 0 0 0 0 127 0" result="hardAlpha"/>
<feOffset dy="4"/>
<feGaussianBlur stdDeviation="2"/>
<feComposite in2="hardAlpha" operator="out"/>
<feColorMatrix type="matrix" values="0 0 0 0 0 0 0 0 0 0 0 0 0 0 0 0 0 0 0.25 0"/>
<feBlend mode="normal" in2="BackgroundImageFix" result="effect1_dropShadow_220_6"/>
<feBlend mode="normal" in="SourceGraphic" in2="effect1_dropShadow_220_6" result="shape"/>
</filter>
<clipPath id="clip0_220_6">
<rect width="110" height="108" fill="white" transform="translate(191 26)"/>
</clipPath>
</defs>
</svg>
